<svg width="14" height="14" viewBox="0 0 14 14" fill="none" xmlns="http://www.w3.org/2000/svg">
<path d="M12.8333 11.0832H9.33333V8.74984H7.77C7.105 10.1615 5.67 11.0832 4.08333 11.0832C1.83167 11.0832 0 9.2515 0 6.99984C0 4.74817 1.83167 2.9165 4.08333 2.9165C5.67 2.9165 7.09917 3.83817 7.77 5.24984H14V8.74984H12.8333V11.0832ZM10.5 9.9165H11.6667V7.58317H12.8333V6.4165H6.965L6.83083 6.02567C6.4225 4.86484 5.31417 4.08317 4.08333 4.08317C2.47333 4.08317 1.16667 5.38984 1.16667 6.99984C1.16667 8.60984 2.47333 9.9165 4.08333 9.9165C5.31417 9.9165 6.4225 9.13484 6.83083 7.974L6.965 7.58317H10.5V9.9165ZM4.08333 8.74984C3.12083 8.74984 2.33333 7.96234 2.33333 6.99984C2.33333 6.03734 3.12083 5.24984 4.08333 5.24984C5.04583 5.24984 5.83333 6.03734 5.83333 6.99984C5.83333 7.96234 5.04583 8.74984 4.08333 8.74984ZM4.08333 6.4165C3.7625 6.4165 3.5 6.679 3.5 6.99984C3.5 7.32067 3.7625 7.58317 4.08333 7.58317C4.40417 7.58317 4.66667 7.32067 4.66667 6.99984C4.66667 6.679 4.40417 6.4165 4.08333 6.4165Z" fill="#696F7A" fill-opacity="0.5"/>
</svg>
