<svg width="14" height="15" viewBox="0 0 14 15" fill="none" xmlns="http://www.w3.org/2000/svg">
<g clip-path="url(#clip0_18_638)">
<path fill-rule="evenodd" clip-rule="evenodd" d="M5.3727 1.1336C5.88791 0.917209 6.4412 0.806064 7.00001 0.806704C7.55545 0.808722 8.10494 0.921155 8.61653 1.13747C9.12812 1.35378 9.5916 1.66964 9.98001 2.0667C10.7649 2.86849 11.2061 3.94472 11.21 5.0667V7.2667L12.43 8.50671C12.696 8.7847 12.8761 9.1335 12.9488 9.51129C13.0216 9.88909 12.9838 10.2798 12.84 10.6367C12.6984 10.9905 12.4541 11.2938 12.1387 11.5076C11.8233 11.7215 11.4511 11.8361 11.07 11.8367H2.91001C2.52893 11.8361 2.15675 11.7215 1.84133 11.5076C1.52591 11.2938 1.28166 10.9905 1.14001 10.6367C0.996239 10.2798 0.958449 9.88909 1.03117 9.51129C1.10389 9.1335 1.28404 8.7847 1.55001 8.50671L2.77001 7.2667V5.0667C2.7739 3.94472 3.21516 2.86849 4.00001 2.0667C4.39077 1.66724 4.85749 1.34999 5.3727 1.1336ZM11.6523 9.79754C11.6292 9.68047 11.5729 9.57254 11.49 9.4867L9.89001 7.8567V5.09671C9.89001 4.33023 9.58553 3.59514 9.04355 3.05316C8.50157 2.51118 7.76648 2.20671 7.00001 2.20671C6.23353 2.20671 5.49845 2.51118 4.95647 3.05316C4.41449 3.59514 4.11001 4.33023 4.11001 5.09671V7.8567L2.51001 9.4867C2.42713 9.57254 2.37078 9.68047 2.34772 9.79754C2.32466 9.91461 2.33587 10.0358 2.38001 10.1467C2.42344 10.2548 2.49789 10.3476 2.59399 10.4135C2.69009 10.4793 2.80352 10.5152 2.92001 10.5167H11.08C11.1965 10.5152 11.3099 10.4793 11.406 10.4135C11.5021 10.3476 11.5766 10.2548 11.62 10.1467C11.6641 10.0358 11.6754 9.91461 11.6523 9.79754ZM8.77997 13.4567H5.21997V14.8067H8.77997V13.4567Z" fill="#E7038E"/>
</g>
<defs>
<clipPath id="clip0_18_638">
<rect width="12" height="14" fill="white" transform="translate(1 0.806702)"/>
</clipPath>
</defs>
</svg>
