<svg width="14" height="15" viewBox="0 0 14 15" fill="none" xmlns="http://www.w3.org/2000/svg">
<g clip-path="url(#clip0_18_724)">
<path fill-rule="evenodd" clip-rule="evenodd" d="M5.3727 1.13378C5.88791 0.917392 6.4412 0.806247 7.00001 0.806888C7.55545 0.808906 8.10494 0.921338 8.61653 1.13765C9.12812 1.35396 9.5916 1.66983 9.98001 2.06689C10.7649 2.86867 11.2061 3.94491 11.21 5.06689V7.26689L12.43 8.50689C12.696 8.78488 12.8761 9.13368 12.9488 9.51148C13.0216 9.88927 12.9838 10.28 12.84 10.6369C12.6984 10.9907 12.4541 11.294 12.1387 11.5078C11.8233 11.7217 11.4511 11.8363 11.07 11.8369H2.91001C2.52893 11.8363 2.15675 11.7217 1.84133 11.5078C1.52591 11.294 1.28166 10.9907 1.14001 10.6369C0.996239 10.28 0.958449 9.88927 1.03117 9.51148C1.10389 9.13368 1.28404 8.78488 1.55001 8.50689L2.77001 7.26689V5.06689C2.7739 3.94491 3.21516 2.86867 4.00001 2.06689C4.39077 1.66743 4.85749 1.35017 5.3727 1.13378ZM11.6523 9.79772C11.6292 9.68065 11.5729 9.57273 11.49 9.48689L9.89001 7.85689V5.09689C9.89001 4.33041 9.58553 3.59533 9.04355 3.05335C8.50157 2.51137 7.76648 2.20689 7.00001 2.20689C6.23353 2.20689 5.49845 2.51137 4.95647 3.05335C4.41449 3.59533 4.11001 4.33041 4.11001 5.09689V7.85689L2.51001 9.48689C2.42713 9.57273 2.37078 9.68065 2.34772 9.79772C2.32466 9.91479 2.33587 10.036 2.38001 10.1469C2.42344 10.255 2.49789 10.3478 2.59399 10.4136C2.69009 10.4795 2.80352 10.5154 2.92001 10.5169H11.08C11.1965 10.5154 11.3099 10.4795 11.406 10.4136C11.5021 10.3478 11.5766 10.255 11.62 10.1469C11.6641 10.036 11.6754 9.91479 11.6523 9.79772ZM8.77997 13.4569H5.21997V14.8069H8.77997V13.4569Z" fill="#FFC9E9"/>
</g>
<defs>
<clipPath id="clip0_18_724">
<rect width="12" height="14" fill="white" transform="translate(1 0.806885)"/>
</clipPath>
</defs>
</svg>
