<svg width="14" height="15" viewBox="0 0 14 15" fill="none" xmlns="http://www.w3.org/2000/svg">
<g clip-path="url(#clip0_84_698)">
<path d="M11.2875 7.9199C12.6574 8.68006 13.7375 10.0199 14 11.625C14 13.0824 12.8324 14.25 11.375 14.25H10.1801C10.7051 13.7824 11.0851 13.2 11.2601 12.5H11.3777C11.8726 12.5 12.2527 12.1199 12.2527 11.625C12.0203 10.75 11.4352 10.0199 10.6476 9.5551C10.2402 8.8551 9.68512 8.21253 9.01522 7.6875L9.27772 7.1625C9.97772 6.93007 10.4726 6.2875 10.4726 5.5V3.75C10.4726 2.9625 9.97772 2.3199 9.27772 2.0875C8.98515 1.3875 8.52029 0.805072 7.93515 0.3375C8.19765 0.280078 8.46015 0.25 8.72265 0.25C10.6476 0.25 12.2226 1.825 12.2226 3.75V5.5C12.25 6.43243 11.8699 7.2801 11.2875 7.9199H11.2875ZM7.875 14.25H2.625C1.1676 14.25 0 13.0824 0 11.625C0.2625 10.0199 1.34257 8.6801 2.7125 7.9199C2.1 7.27733 1.75 6.4324 1.75 5.5V3.75C1.75 1.825 3.325 0.25 5.25 0.25C7.175 0.25 8.75 1.825 8.75 3.75V5.5C8.75 6.43243 8.36993 7.2801 7.7875 7.9199C9.15743 8.67733 10.2375 10.0199 10.5 11.625C10.5 13.0824 9.33243 14.25 7.875 14.25ZM7 5.5V3.75C7 2.7875 6.2125 2 5.25 2C4.2875 2 3.5 2.7875 3.5 3.75V5.5C3.5 6.4625 4.2875 7.25 5.25 7.25C6.2125 7.25 7 6.4625 7 5.5ZM8.75 11.625C8.36993 10.1074 6.8824 9 5.25 9C3.6176 9 2.1301 10.1074 1.75 11.625C1.75 12.1199 2.13007 12.5 2.625 12.5H7.875C8.36993 12.5 8.75 12.1199 8.75 11.625Z" fill="#FFC9E9"/>
</g>
<defs>
<clipPath id="clip0_84_698">
<rect width="14" height="14" fill="white" transform="translate(0 0.25)"/>
</clipPath>
</defs>
</svg>
