<svg width="14" height="14" viewBox="0 0 14 14" fill="none" xmlns="http://www.w3.org/2000/svg">
<path d="M7.00011 3.81818C7.67159 3.81818 8.20998 3.24545 8.20998 2.54545C8.20998 2.30364 8.14949 2.08091 8.03455 1.89L7.00011 0L5.96566 1.89C5.85073 2.08091 5.79023 2.30364 5.79023 2.54545C5.79023 3.24545 6.33468 3.81818 7.00011 3.81818ZM10.6297 5.72727H7.60505V4.45455H6.39517V5.72727H3.37048C2.36628 5.72727 1.55566 6.58 1.55566 7.63636V13.3636C1.55566 13.7136 1.82789 14 2.1606 14H11.8396C12.1723 14 12.4446 13.7136 12.4446 13.3636V7.63636C12.4446 6.58 11.6339 5.72727 10.6297 5.72727ZM11.2347 12.7273H2.76554V10.8182C3.30999 10.8118 3.83023 10.5827 4.21739 10.1755L4.87678 9.49454L5.52406 10.1755C6.31653 11.0091 7.69579 11.0027 8.48221 10.1755L9.13554 9.49454L9.78282 10.1755C10.17 10.5827 10.6902 10.8118 11.2347 10.8182V12.7273ZM11.2347 9.86364C10.9262 9.85727 10.6358 9.73636 10.418 9.50091L9.12949 8.14545L7.83492 9.50091C7.38727 9.97182 6.6069 9.97182 6.15924 9.50091L4.87073 8.14545L3.57616 9.50091C3.36443 9.73 3.07406 9.85727 2.76554 9.86364V7.63636C2.76554 7.28636 3.03776 7 3.37048 7H10.6297C10.9625 7 11.2347 7.28636 11.2347 7.63636V9.86364Z" fill="#696F7A" fill-opacity="0.5"/>
</svg>
