<svg width="14" height="14" viewBox="0 0 14 14" fill="none" xmlns="http://www.w3.org/2000/svg">
<g clip-path="url(#clip0_35_1482)">
<path d="M2.00072 11.8997C3.1334 13.0554 4.63149 13.783 6.24013 13.9586C7.84877 14.1343 9.46859 13.7472 10.824 12.8632C12.1794 11.9792 13.1867 10.6529 13.6744 9.10997C14.1622 7.56702 14.1003 5.90274 13.4993 4.40028C12.8984 2.89781 11.7954 1.64997 10.3781 0.869056C8.96077 0.0881395 7.31668 -0.177613 5.72552 0.117011C4.13437 0.411635 2.69443 1.24844 1.65069 2.48505C0.606959 3.72166 0.0239021 5.28169 0.000718481 6.89973C-0.0125235 7.82391 0.157395 8.74158 0.500665 9.59975C0.843935 10.4579 1.35376 11.2396 2.00072 11.8997ZM2.44072 3.25973L4.06072 4.88973C3.63726 5.48192 3.40959 6.19171 3.40959 6.91973C3.40959 7.64774 3.63726 8.35753 4.06072 8.94973L2.43072 10.5797C1.58295 9.5368 1.12015 8.23376 1.12015 6.88973C1.12015 5.5457 1.58295 4.24265 2.43072 3.19972L2.44072 3.25973ZM8.59072 8.59973C8.15397 9.03512 7.56242 9.27961 6.94572 9.27961C6.32902 9.27961 5.73747 9.03512 5.30072 8.59973C5.08242 8.38396 4.90911 8.12701 4.79083 7.84378C4.67255 7.56055 4.61164 7.25666 4.61164 6.94973C4.61164 6.64279 4.67255 6.3389 4.79083 6.05567C4.90911 5.77244 5.08242 5.5155 5.30072 5.29973C5.73747 4.86433 6.32902 4.61984 6.94572 4.61984C7.56242 4.61984 8.15397 4.86433 8.59072 5.29973C8.80901 5.5155 8.98233 5.77244 9.10061 6.05567C9.21889 6.3389 9.2798 6.64279 9.2798 6.94973C9.2798 7.25666 9.21889 7.56055 9.10061 7.84378C8.98233 8.12701 8.80901 8.38396 8.59072 8.59973ZM3.26072 11.4697L4.89072 9.83972C5.47672 10.2528 6.17381 10.4794 6.89072 10.4897C7.60825 10.4832 8.30644 10.2563 8.89072 9.83972L10.5207 11.4697C9.47779 12.3175 8.17475 12.7803 6.83072 12.7803C5.48669 12.7803 4.18365 12.3175 3.14072 11.4697H3.26072ZM11.4607 10.6397L9.83072 9.00973C10.2542 8.41754 10.4818 7.70774 10.4818 6.97973C10.4818 6.25171 10.2542 5.54192 9.83072 4.94973L11.4607 3.31972C12.3138 4.36024 12.78 5.6642 12.78 7.00973C12.78 8.35525 12.3138 9.65921 11.4607 10.6997V10.6397ZM10.6407 2.42972L9.00072 4.00973C8.41644 3.59316 7.71825 3.36625 7.00072 3.35972C6.28381 3.37005 5.58672 3.5966 5.00072 4.00973L3.37072 2.37973C4.41365 1.53195 5.71669 1.06915 7.06072 1.06915C8.40475 1.06915 9.70779 1.53195 10.7507 2.37973L10.6407 2.42972Z" fill="#086AFB"/>
</g>
<defs>
<clipPath id="clip0_35_1482">
<rect width="14" height="14" fill="white"/>
</clipPath>
</defs>
</svg>
