<svg width="14" height="14" viewBox="0 0 14 14" fill="none" xmlns="http://www.w3.org/2000/svg">
<path d="M11.3333 4.66667H10.6667V3.33333C10.6667 1.49333 9.17333 0 7.33333 0C5.49333 0 4 1.49333 4 3.33333V4.66667H3.33333C2.6 4.66667 2 5.26667 2 6V12.6667C2 13.4 2.6 14 3.33333 14H11.3333C12.0667 14 12.6667 13.4 12.6667 12.6667V6C12.6667 5.26667 12.0667 4.66667 11.3333 4.66667ZM5.33333 3.33333C5.33333 2.22667 6.22667 1.33333 7.33333 1.33333C8.44 1.33333 9.33333 2.22667 9.33333 3.33333V4.66667H5.33333V3.33333ZM11.3333 12.6667H3.33333V6H11.3333V12.6667ZM7.33333 10.6667C8.06667 10.6667 8.66667 10.0667 8.66667 9.33333C8.66667 8.6 8.06667 8 7.33333 8C6.6 8 6 8.6 6 9.33333C6 10.0667 6.6 10.6667 7.33333 10.6667Z" fill="#086AFB"/>
</svg>
