<svg width="14" height="14" viewBox="0 0 14 14" fill="none" xmlns="http://www.w3.org/2000/svg">
<g clip-path="url(#clip0_35_1344)">
<path fill-rule="evenodd" clip-rule="evenodd" d="M5.3727 0.326896C5.88791 0.110508 6.4412 -0.000637564 7.00001 2.75098e-06C7.55545 0.0020208 8.10494 0.114453 8.61653 0.330764C9.12812 0.547074 9.5916 0.862943 9.98001 1.26C10.7649 2.06178 11.2061 3.13802 11.21 4.26V6.46L12.43 7.7C12.696 7.97799 12.8761 8.3268 12.9488 8.70459C13.0216 9.08239 12.9838 9.47314 12.84 9.83C12.6984 10.1838 12.4541 10.4871 12.1387 10.7009C11.8233 10.9148 11.4511 11.0294 11.07 11.03H2.91001C2.52893 11.0294 2.15675 10.9148 1.84133 10.7009C1.52591 10.4871 1.28166 10.1838 1.14001 9.83C0.996239 9.47314 0.958449 9.08239 1.03117 8.70459C1.10389 8.3268 1.28404 7.97799 1.55001 7.7L2.77001 6.46V4.26C2.7739 3.13802 3.21516 2.06178 4.00001 1.26C4.39077 0.860541 4.85749 0.543284 5.3727 0.326896ZM11.6523 8.99084C11.6292 8.87377 11.5729 8.76584 11.49 8.68L9.89001 7.05V4.29C9.89001 3.52353 9.58553 2.78844 9.04355 2.24646C8.50157 1.70448 7.76648 1.4 7.00001 1.4C6.23353 1.4 5.49845 1.70448 4.95647 2.24646C4.41449 2.78844 4.11001 3.52353 4.11001 4.29V7.05L2.51001 8.68C2.42713 8.76584 2.37078 8.87377 2.34772 8.99084C2.32466 9.10791 2.33587 9.22915 2.38001 9.34C2.42344 9.4481 2.49789 9.54092 2.59399 9.60676C2.69009 9.67261 2.80352 9.70853 2.92001 9.71H11.08C11.1965 9.70853 11.3099 9.67261 11.406 9.60676C11.5021 9.54092 11.5766 9.4481 11.62 9.34C11.6641 9.22915 11.6754 9.10791 11.6523 8.99084ZM8.77997 12.65H5.21997V14H8.77997V12.65Z" fill="#086AFB"/>
</g>
<defs>
<clipPath id="clip0_35_1344">
<rect width="12" height="14" fill="white" transform="translate(1)"/>
</clipPath>
</defs>
</svg>
