<svg width="14" height="14" viewBox="0 0 14 14" fill="none" xmlns="http://www.w3.org/2000/svg">
<path d="M6.9 0C4.191 0 2 2.191 2 4.9C2 8.575 6.9 14 6.9 14C6.9 14 11.8 8.575 11.8 4.9C11.8 2.191 9.609 0 6.9 0ZM3.4 4.9C3.4 2.968 4.968 1.4 6.9 1.4C8.832 1.4 10.4 2.968 10.4 4.9C10.4 6.916 8.384 9.933 6.9 11.816C5.444 9.947 3.4 6.895 3.4 4.9Z" fill="#086AFB"/>
<path d="M6.90002 6.65002C7.86652 6.65002 8.65002 5.86652 8.65002 4.90002C8.65002 3.93353 7.86652 3.15002 6.90002 3.15002C5.93353 3.15002 5.15002 3.93353 5.15002 4.90002C5.15002 5.86652 5.93353 6.65002 6.90002 6.65002Z" fill="#086AFB"/>
</svg>
