<svg width="18" height="18" viewBox="0 0 18 18" fill="none" xmlns="http://www.w3.org/2000/svg">
<g clip-path="url(#clip0_1_313)">
<path fill-rule="evenodd" clip-rule="evenodd" d="M6.90775 0.420294C7.57016 0.142081 8.28153 -0.000819725 8.99999 3.53697e-06C9.71413 0.00259817 10.4206 0.147154 11.0784 0.425268C11.7361 0.703381 12.332 1.1095 12.8314 1.62C13.8405 2.65087 14.4078 4.0346 14.4128 5.47714V8.30572L15.9814 9.9C16.3234 10.2574 16.555 10.7059 16.6485 11.1916C16.742 11.6774 16.6934 12.1798 16.5086 12.6386C16.3264 13.0934 16.0124 13.4834 15.6069 13.7583C15.2013 14.0333 14.7228 14.1806 14.2329 14.1814H3.74142C3.25146 14.1806 2.77295 14.0333 2.36741 13.7583C1.96186 13.4834 1.64784 13.0934 1.46571 12.6386C1.28086 12.1798 1.23227 11.6774 1.32577 11.1916C1.41927 10.7059 1.65089 10.2574 1.99285 9.9L3.56142 8.30572V5.47714C3.56642 4.0346 4.13375 2.65087 5.14285 1.62C5.64526 1.10641 6.24533 0.698508 6.90775 0.420294ZM14.9815 11.5597C14.9519 11.4091 14.8794 11.2704 14.7729 11.16L12.7157 9.06429V5.51572C12.7157 4.53025 12.3242 3.58514 11.6274 2.88831C10.9306 2.19148 9.98546 1.80001 8.99999 1.80001C8.01452 1.80001 7.06942 2.19148 6.37259 2.88831C5.67576 3.58514 5.28428 4.53025 5.28428 5.51572V9.06429L3.22713 11.16C3.12057 11.2704 3.04813 11.4091 3.01848 11.5597C2.98883 11.7102 3.00325 11.866 3.05999 12.0086C3.11583 12.1476 3.21156 12.2669 3.33511 12.3516C3.45867 12.4362 3.60451 12.4824 3.75428 12.4843H14.2457C14.3955 12.4824 14.5413 12.4362 14.6649 12.3516C14.7884 12.2669 14.8842 12.1476 14.94 12.0086C14.9967 11.866 15.0112 11.7102 14.9815 11.5597ZM11.2885 16.2643H6.71137V18H11.2885V16.2643Z" fill="#086AFB"/>
</g>
<defs>
<clipPath id="clip0_1_313">
<rect width="15.4286" height="18" fill="white" transform="translate(1.28571)"/>
</clipPath>
</defs>
</svg>
