<svg width="14" height="15" viewBox="0 0 14 15" fill="none" xmlns="http://www.w3.org/2000/svg">
<path d="M7 0.25C3.136 0.25 0 3.386 0 7.25C0 11.114 3.136 14.25 7 14.25C10.864 14.25 14 11.114 14 7.25C14 3.386 10.864 0.25 7 0.25ZM7 12.85C3.913 12.85 1.4 10.337 1.4 7.25C1.4 4.163 3.913 1.65 7 1.65C10.087 1.65 12.6 4.163 12.6 7.25C12.6 10.337 10.087 12.85 7 12.85ZM3.15 11.1L8.407 8.657L10.85 3.4L5.593 5.843L3.15 11.1ZM7 6.48C7.427 6.48 7.77 6.823 7.77 7.25C7.77 7.677 7.427 8.02 7 8.02C6.573 8.02 6.23 7.677 6.23 7.25C6.23 6.823 6.573 6.48 7 6.48Z" fill="#E7038E"/>
</svg>
