<svg width="14" height="15" viewBox="0 0 14 15" fill="none" xmlns="http://www.w3.org/2000/svg">
<path d="M12.6 1.65002H1.4C0.63 1.65002 0 2.28002 0 3.05002V11.45C0 12.22 0.63 12.85 1.4 12.85H12.6C13.37 12.85 14 12.22 14 11.45V3.05002C14 2.28002 13.37 1.65002 12.6 1.65002ZM12.6 11.45H1.4V3.05002H12.6V11.45Z" fill="#FFC9E9"/>
<path d="M3.14293 6.20002V9.35002H3.94793V5.15002H3.33893L2.10693 6.03902L2.51293 6.66202L3.14293 6.20002Z" fill="#FFC9E9"/>
<path d="M6.62899 5.88505C6.97899 5.88505 7.19599 6.10905 7.19599 6.38905C7.19599 6.64805 7.09799 6.83705 6.81799 7.13105C6.56599 7.39705 6.07599 7.88705 5.32699 8.63605V9.35005H8.04999V8.65705H6.39099L6.36999 8.62205C6.84599 8.14605 7.17499 7.82405 7.34999 7.64905C7.77699 7.22905 7.99399 6.79505 7.99399 6.34705C7.99399 6.17905 7.95899 5.61905 7.35699 5.31105C7.02799 5.15005 6.47499 5.05905 5.99199 5.29005C5.41799 5.56305 5.29899 6.08105 5.29199 6.09505L5.99899 6.38905C6.06899 6.15805 6.26499 5.88505 6.62899 5.88505Z" fill="#FFC9E9"/>
<path d="M10.4931 8.60802C9.91211 8.60802 9.80011 8.07603 9.77911 8.00603L9.05811 8.29303C9.37311 9.40603 10.4651 9.35003 10.4931 9.35003C11.3331 9.35003 11.6691 8.84602 11.7251 8.75502C11.9491 8.41202 11.9771 7.88703 11.7181 7.52303C11.5991 7.35503 11.4381 7.23602 11.2421 7.15902V7.11003C11.3821 7.04002 11.5011 6.92802 11.6061 6.77402C11.7881 6.48702 11.8231 6.02502 11.5921 5.67502C11.5361 5.59802 11.2211 5.15002 10.4581 5.15002C9.57611 5.15002 9.24011 5.78002 9.16311 6.01802L9.85611 6.30502C9.93311 6.08102 10.1011 5.85702 10.4511 5.85702C10.7591 5.85702 10.9761 6.03902 10.9761 6.31202C10.9761 6.71802 10.5911 6.81602 10.3601 6.81602H10.0381V7.51603H10.3881C10.7801 7.51603 11.1161 7.68403 11.1161 8.06903C11.1161 8.41203 10.7801 8.60802 10.4931 8.60802Z" fill="#FFC9E9"/>
</svg>
