<svg width="34" height="34" viewBox="0 0 34 34" fill="none" xmlns="http://www.w3.org/2000/svg">
<circle cx="17" cy="17" r="17" fill="#DDEBFF"/>
<g clip-path="url(#clip0_1_468)">
<path d="M20.3 13.22L19.49 10.98H14.49L13.71 13.2H10.01V22.98H24V13.19L20.3 13.22ZM22.43 21.4H11.57V14.81H14.8L15.57 12.59H18.43L19.31 14.81H22.43V21.4Z" fill="#086AFB"/>
<path d="M18.92 15.7199C18.6703 15.4635 18.3717 15.2597 18.042 15.1205C17.7122 14.9814 17.3579 14.9097 17 14.9097C16.6421 14.9097 16.2878 14.9814 15.958 15.1205C15.6282 15.2597 15.3297 15.4635 15.08 15.7199C14.8263 15.9769 14.6259 16.2814 14.4904 16.6161C14.3548 16.9507 14.2867 17.3089 14.29 17.6699C14.2823 18.039 14.3481 18.406 14.4838 18.7494C14.6194 19.0928 14.8221 19.4057 15.08 19.6699C15.3297 19.9263 15.6282 20.1301 15.958 20.2693C16.2878 20.4085 16.6421 20.4801 17 20.4801C17.3579 20.4801 17.7122 20.4085 18.042 20.2693C18.3717 20.1301 18.6703 19.9263 18.92 19.6699C19.1779 19.4057 19.3805 19.0928 19.5162 18.7494C19.6518 18.406 19.7177 18.039 19.71 17.6699C19.7133 17.3089 19.6452 16.9507 19.5096 16.6161C19.374 16.2814 19.1736 15.9769 18.92 15.7199ZM17.81 18.4899C17.651 18.6525 17.4466 18.7634 17.2236 18.808C17.0006 18.8526 16.7693 18.8289 16.56 18.7399C16.3505 18.6509 16.1722 18.5016 16.0476 18.3112C15.9229 18.1207 15.8577 17.8975 15.86 17.6699C15.8585 17.3639 15.977 17.0696 16.19 16.8499C16.295 16.7407 16.4207 16.6535 16.5597 16.5934C16.6988 16.5333 16.8485 16.5015 17 16.4999C17.2278 16.5025 17.4499 16.5722 17.6384 16.7003C17.8269 16.8283 17.9736 17.009 18.06 17.2199C18.1453 17.4331 18.1671 17.6665 18.1227 17.8919C18.0784 18.1172 17.9698 18.3249 17.81 18.4899Z" fill="#086AFB"/>
</g>
<defs>
<clipPath id="clip0_1_468">
<rect width="14" height="12" fill="white" transform="translate(10 11)"/>
</clipPath>
</defs>
</svg>
