<svg width="10" height="10" viewBox="0 0 10 10" fill="none" xmlns="http://www.w3.org/2000/svg">
<path d="M9.99963 3.12487C9.99963 2.08914 9.16044 1.24995 8.12471 1.24995H6.19667L5.3123 0.365578C5.07794 0.131213 4.75934 0 4.42794 0H1.87492C0.839198 0 0 0.839198 0 1.87492V8.12465C0 9.16037 0.839198 9.99957 1.87492 9.99957H4.21857C4.56401 9.99957 4.84354 9.72004 4.84354 9.3746C4.84354 9.02916 4.56401 8.74962 4.21857 8.74962H1.87492C1.52948 8.74962 1.24995 8.47009 1.24995 8.12465V1.87492C1.24995 1.52948 1.52948 1.24995 1.87492 1.24995H4.42794L5.3123 2.13431C5.54667 2.36868 5.86526 2.49989 6.19667 2.49989H8.12471C8.29072 2.49989 8.4494 2.56581 8.56659 2.68299C8.68377 2.80018 8.74969 2.95886 8.74969 3.12487V3.90608C8.74969 4.25152 9.02922 4.53106 9.37466 4.53106C9.7201 4.53106 9.99963 4.25152 9.99963 3.90608V3.12487Z" fill="#086AFB"/>
<path d="M9.59511 6.52498L8.25301 5.18288C8.00888 4.93814 7.61277 4.93814 7.36864 5.18288C7.12451 5.42701 7.12451 5.82251 7.36864 6.06663L8.17793 6.8747H6.24989C5.55961 6.8747 4.99995 6.31504 4.99995 5.62476C4.99995 5.27932 4.72041 4.99978 4.37497 4.99978C4.02953 4.99978 3.75 5.27932 3.75 5.62476C3.75 6.28757 4.01366 6.92353 4.48239 7.39218C4.95112 7.86083 5.58708 8.12457 6.24981 8.12457H8.17786L7.36978 8.93264H7.37039C7.12565 9.17677 7.12565 9.57227 7.37039 9.81639C7.61452 10.0611 8.01002 10.0611 8.25414 9.81639L9.59623 8.47429H9.59684C10.1345 7.93598 10.1345 7.06322 9.59684 6.52484L9.59511 6.52498Z" fill="#086AFB"/>
</svg>
