<svg width="18" height="18" viewBox="0 0 18 18" fill="none" xmlns="http://www.w3.org/2000/svg">
<path fill-rule="evenodd" clip-rule="evenodd" d="M16.5 9C16.5 13.1421 13.1421 16.5 9 16.5C4.85786 16.5 1.5 13.1421 1.5 9C1.5 4.85786 4.85786 1.5 9 1.5C13.1421 1.5 16.5 4.85786 16.5 9ZM18 9C18 13.9706 13.9706 18 9 18C4.02944 18 0 13.9706 0 9C0 4.02944 4.02944 0 9 0C13.9706 0 18 4.02944 18 9ZM7.71609 12.8571C7.44522 12.8571 7.17435 12.7503 6.99024 12.5475L4.11909 9.50302C3.75088 9.1079 3.77246 8.48823 4.17368 8.12519C4.57444 7.76216 5.20294 7.78344 5.57115 8.17861L7.71654 10.4541L12.4292 5.45458C12.7974 5.05941 13.4259 5.03813 13.8267 5.40117C14.2275 5.76416 14.2491 6.38382 13.8809 6.77899L8.44193 12.5475C8.25782 12.7395 7.98695 12.8571 7.71609 12.8571Z" fill="#B3B3B3"/>
</svg>
