<svg width="14" height="14" viewBox="0 0 14 14" fill="none" xmlns="http://www.w3.org/2000/svg">
<path d="M7.00002 0C3.1391 0 0 3.1391 0 7.00002C0 10.8609 3.1391 14 7.00002 14C10.8609 14 14 10.8609 14 7.00002C14 3.1391 10.8609 0 7.00002 0ZM7.00002 12.8504C3.77293 12.8504 1.14962 10.2271 1.14962 7.00002C1.14962 3.77293 3.77293 1.14962 7.00002 1.14962C10.2271 1.14962 12.8504 3.77293 12.8504 7.00002C12.8504 10.2271 10.2271 12.8504 7.00002 12.8504Z" fill="#FBB445"/>
<path d="M7.60446 9.38724C7.04434 9.37227 6.45487 9.10748 6.11574 8.4587H7.86914V7.33846H5.8353C5.82033 7.23542 5.82033 7.11741 5.82033 6.9994C5.82033 6.86699 5.8353 6.74899 5.8353 6.616H7.86914V5.51074H6.14507C6.48414 4.8919 7.05864 4.62652 7.61876 4.59717C8.03151 4.61213 8.42929 4.74454 8.76835 4.96559L9.28414 3.93401C8.79771 3.65424 8.25256 3.4919 7.67812 3.47693H7.57507C7.13297 3.4919 6.73519 3.57997 6.38115 3.75669C5.99776 3.94839 5.67366 4.21377 5.40828 4.55225C5.2022 4.83201 5.02489 5.14172 4.90746 5.51015H3.9939V6.61541H4.70138C4.68642 6.74781 4.68642 6.86582 4.68642 6.99881C4.68642 7.11682 4.70138 7.21986 4.70138 7.33787H4.00887V8.45811H4.92244C5.04045 8.82653 5.21717 9.15062 5.42326 9.43098C5.68864 9.78443 6.01273 10.0498 6.39612 10.2265C6.74957 10.4033 7.14794 10.5063 7.59005 10.5213H7.63437H7.69309C8.26759 10.5063 8.82771 10.3296 9.31415 10.0498L8.79836 9.0332C8.41496 9.23986 8.01661 9.37284 7.60443 9.38723L7.60446 9.38724Z" fill="#FBB445"/>
</svg>
