<svg width="14" height="14" viewBox="0 0 14 14" fill="none" xmlns="http://www.w3.org/2000/svg">
<path d="M3.36 2.33333C3.4 2.92667 3.5 3.50667 3.66 4.06L2.86 4.86C2.58667 4.06 2.41333 3.21333 2.35333 2.33333H3.36ZM9.93333 10.3467C10.5 10.5067 11.08 10.6067 11.6667 10.6467V11.64C10.7867 11.58 9.94 11.4067 9.13333 11.14L9.93333 10.3467ZM4 1H1.66667C1.3 1 1 1.3 1 1.66667C1 7.92667 6.07333 13 12.3333 13C12.7 13 13 12.7 13 12.3333V10.0067C13 9.64 12.7 9.34 12.3333 9.34C11.5067 9.34 10.7 9.20667 9.95333 8.96C9.88667 8.93333 9.81333 8.92667 9.74667 8.92667C9.57333 8.92667 9.40667 8.99333 9.27333 9.12L7.80667 10.5867C5.92 9.62 4.37333 8.08 3.41333 6.19333L4.88 4.72667C5.06667 4.54 5.12 4.28 5.04667 4.04667C4.8 3.3 4.66667 2.5 4.66667 1.66667C4.66667 1.3 4.36667 1 4 1Z" fill="#696F7A" fill-opacity="0.5"/>
</svg>
