<svg width="14" height="14" viewBox="0 0 14 14" fill="none" xmlns="http://www.w3.org/2000/svg">
<path d="M12.8333 11.0833H9.33333V8.74999H7.77C7.105 10.1617 5.67 11.0833 4.08333 11.0833C1.83167 11.0833 0 9.25166 0 6.99999C0 4.74832 1.83167 2.91666 4.08333 2.91666C5.67 2.91666 7.09917 3.83832 7.77 5.24999H14V8.74999H12.8333V11.0833ZM10.5 9.91666H11.6667V7.58332H12.8333V6.41666H6.965L6.83083 6.02582C6.4225 4.86499 5.31417 4.08332 4.08333 4.08332C2.47333 4.08332 1.16667 5.38999 1.16667 6.99999C1.16667 8.60999 2.47333 9.91666 4.08333 9.91666C5.31417 9.91666 6.4225 9.13499 6.83083 7.97416L6.965 7.58332H10.5V9.91666ZM4.08333 8.74999C3.12083 8.74999 2.33333 7.96249 2.33333 6.99999C2.33333 6.03749 3.12083 5.24999 4.08333 5.24999C5.04583 5.24999 5.83333 6.03749 5.83333 6.99999C5.83333 7.96249 5.04583 8.74999 4.08333 8.74999ZM4.08333 6.41666C3.7625 6.41666 3.5 6.67916 3.5 6.99999C3.5 7.32082 3.7625 7.58332 4.08333 7.58332C4.40417 7.58332 4.66667 7.32082 4.66667 6.99999C4.66667 6.67916 4.40417 6.41666 4.08333 6.41666Z" fill="#B4B7BC"/>
</svg>
