<svg width="14" height="15" viewBox="0 0 14 15" fill="none" xmlns="http://www.w3.org/2000/svg">
<g clip-path="url(#clip0_18_633)">
<path d="M2.00072 12.6883C3.1334 13.844 4.63149 14.5716 6.24013 14.7472C7.84877 14.9229 9.46859 14.5358 10.824 13.6518C12.1794 12.7678 13.1867 11.4415 13.6744 9.89854C14.1622 8.3556 14.1003 6.69132 13.4993 5.18885C12.8984 3.68639 11.7954 2.43855 10.3781 1.65763C8.96077 0.876714 7.31668 0.610961 5.72552 0.905585C4.13437 1.20021 2.69443 2.03701 1.65069 3.27362C0.606959 4.51023 0.0239021 6.07026 0.000718481 7.6883C-0.0125235 8.61249 0.157395 9.53015 0.500665 10.3883C0.843935 11.2465 1.35376 12.0282 2.00072 12.6883ZM2.44072 4.0483L4.06072 5.6783C3.63726 6.27049 3.40959 6.98028 3.40959 7.7083C3.40959 8.43632 3.63726 9.14611 4.06072 9.7383L2.43072 11.3683C1.58295 10.3254 1.12015 9.02233 1.12015 7.6783C1.12015 6.33427 1.58295 5.03123 2.43072 3.9883L2.44072 4.0483ZM8.59072 9.3883C8.15397 9.8237 7.56242 10.0682 6.94572 10.0682C6.32902 10.0682 5.73747 9.8237 5.30072 9.3883C5.08242 9.17253 4.90911 8.91558 4.79083 8.63235C4.67255 8.34912 4.61164 8.04524 4.61164 7.7383C4.61164 7.43136 4.67255 7.12748 4.79083 6.84424C4.90911 6.56101 5.08242 6.30407 5.30072 6.0883C5.73747 5.6529 6.32902 5.40841 6.94572 5.40841C7.56242 5.40841 8.15397 5.6529 8.59072 6.0883C8.80901 6.30407 8.98233 6.56101 9.10061 6.84424C9.21889 7.12748 9.2798 7.43136 9.2798 7.7383C9.2798 8.04524 9.21889 8.34912 9.10061 8.63235C8.98233 8.91558 8.80901 9.17253 8.59072 9.3883ZM3.26072 12.2583L4.89072 10.6283C5.47672 11.0414 6.17381 11.268 6.89072 11.2783C7.60825 11.2718 8.30644 11.0449 8.89072 10.6283L10.5207 12.2583C9.47779 13.1061 8.17475 13.5689 6.83072 13.5689C5.48669 13.5689 4.18365 13.1061 3.14072 12.2583H3.26072ZM11.4607 11.4283L9.83072 9.7983C10.2542 9.20611 10.4818 8.49632 10.4818 7.7683C10.4818 7.04029 10.2542 6.33049 9.83072 5.7383L11.4607 4.1083C12.3138 5.14881 12.78 6.45278 12.78 7.7983C12.78 9.14383 12.3138 10.4478 11.4607 11.4883V11.4283ZM10.6407 3.2183L9.00072 4.7983C8.41644 4.38174 7.71825 4.15482 7.00072 4.1483C6.28381 4.15862 5.58672 4.38518 5.00072 4.7983L3.37072 3.1683C4.41365 2.32053 5.71669 1.85773 7.06072 1.85773C8.40475 1.85773 9.70779 2.32053 10.7507 3.1683L10.6407 3.2183Z" fill="#E7038E"/>
</g>
<defs>
<clipPath id="clip0_18_633">
<rect width="14" height="14" fill="white" transform="translate(0 0.788574)"/>
</clipPath>
</defs>
</svg>
