<svg xmlns="http://www.w3.org/2000/svg" width="136" height="33" fill="none" viewBox="0 0 136 33">
  <g clip-path="url(#a)">
    <g clip-path="url(#b)">
      <path fill="#2887F9" d="M26.064 0H6.516a6.516 6.516 0 0 0 0 13.032h19.548a6.516 6.516 0 1 0 0-13.032Z"/>
      <path fill="#E53CA9" d="M26.064 17.92H6.516a6.516 6.516 0 1 0 0 13.031h19.548a6.516 6.516 0 1 0 0-13.032Z"/>
      <path fill="#3D33D1" d="M21.638 1.749 2.172 19.655a6.516 6.516 0 1 0 8.823 9.591L30.461 11.34a6.516 6.516 0 1 0-8.823-9.591Z"/>
      <path fill="#2887F9" d="M45.925 26.759v2.04c0 .322-.073.564-.22.725a.748.748 0 0 1-.579.242.716.716 0 0 1-.566-.242c-.144-.16-.217-.403-.217-.724v-2.446c0-.387-.013-.686-.038-.898a.985.985 0 0 0-.213-.525c-.115-.136-.298-.206-.55-.206-.502 0-.832.172-.99.518-.159.344-.24.84-.24 1.484v2.075c0 .319-.073.559-.218.722a.726.726 0 0 1-.57.244.73.73 0 0 1-.57-.244c-.147-.163-.222-.403-.222-.722v-4.39c0-.287.066-.506.2-.658a.67.67 0 0 1 .524-.224.7.7 0 0 1 .525.21c.14.141.21.336.21.582v.147c.268-.319.55-.552.856-.703.303-.15.64-.224 1.011-.224.371 0 .717.076.996.23.278.154.506.387.685.697.258-.314.536-.547.833-.699a2.13 2.13 0 0 1 .984-.228c.419 0 .78.081 1.084.246.303.165.53.4.68.708.132.279.198.715.198 1.31v2.996c0 .321-.073.563-.22.724a.748.748 0 0 1-.579.242.723.723 0 0 1-.57-.244c-.147-.163-.222-.403-.222-.722v-2.58a5.7 5.7 0 0 0-.043-.791.892.892 0 0 0-.228-.5c-.125-.134-.313-.202-.562-.202-.2 0-.393.062-.577.18-.18.12-.323.28-.425.483-.113.258-.17.715-.17 1.371l.003-.004Zm10.824-.113c0 .457-.07.878-.213 1.264a2.708 2.708 0 0 1-1.584 1.634c-.375.15-.796.222-1.264.222a3.32 3.32 0 0 1-1.254-.224 2.772 2.772 0 0 1-1.581-1.631 3.63 3.63 0 0 1-.21-1.263c0-.462.07-.89.212-1.276a2.76 2.76 0 0 1 .613-.989 2.7 2.7 0 0 1 .966-.631 3.431 3.431 0 0 1 1.254-.222c.456 0 .886.075 1.264.224.378.15.704.364.973.64.27.279.475.607.616.99.14.382.21.802.21 1.264l-.002-.002Zm-1.541 0c0-.627-.138-1.113-.414-1.462-.276-.348-.645-.523-1.111-.523-.301 0-.563.077-.792.234a1.488 1.488 0 0 0-.53.687 2.792 2.792 0 0 0-.185 1.064c0 .405.061.75.183 1.05.123.3.297.529.523.687.226.159.493.24.801.24.464 0 .835-.174 1.11-.525.277-.35.415-.835.415-1.452Zm6.955 2.242v-.152a3.96 3.96 0 0 1-.611.577 2.35 2.35 0 0 1-.652.337 2.456 2.456 0 0 1-.767.116c-.366 0-.708-.077-1.02-.233a2.406 2.406 0 0 1-.812-.665 3.009 3.009 0 0 1-.52-1.019 4.346 4.346 0 0 1-.177-1.264c0-.96.233-1.706.701-2.242.469-.537 1.084-.804 1.849-.804.441 0 .814.077 1.117.229.304.151.6.384.89.699v-2.265c0-.314.063-.552.187-.715.125-.16.304-.242.537-.242.233 0 .411.075.536.222.124.147.188.366.188.654v6.767c0 .292-.068.511-.202.658a.679.679 0 0 1-.522.22.67.67 0 0 1-.52-.229c-.137-.151-.207-.368-.207-.65h.005Zm-3.018-2.254c0 .417.065.77.194 1.064.13.292.306.513.532.66.224.15.47.222.735.222s.516-.07.74-.21c.224-.14.4-.355.534-.647.134-.29.2-.652.2-1.088 0-.408-.066-.76-.2-1.055a1.591 1.591 0 0 0-.538-.674 1.284 1.284 0 0 0-.745-.233c-.269 0-.532.079-.753.24-.222.158-.392.387-.514.685a2.716 2.716 0 0 0-.183 1.037h-.002Zm10.29.39h-3c.004.348.074.656.21.92.136.267.319.466.545.602.227.136.478.202.751.202a1.654 1.654 0 0 0 .943-.265 3.17 3.17 0 0 0 .394-.297c.12-.104.277-.246.467-.427a.5.5 0 0 1 .337-.102.55.55 0 0 1 .382.13.464.464 0 0 1 .147.366c0 .138-.054.3-.163.486a1.908 1.908 0 0 1-.49.534 2.8 2.8 0 0 1-.826.423 3.54 3.54 0 0 1-1.143.17c-.987 0-1.751-.28-2.299-.844-.547-.561-.821-1.324-.821-2.288 0-.452.068-.873.201-1.262.136-.387.333-.72.59-.998a2.56 2.56 0 0 1 .956-.638c.377-.15.798-.222 1.258-.222.6 0 1.113.127 1.543.38.43.254.75.58.963.98.213.4.322.81.322 1.227 0 .386-.111.635-.333.75-.222.116-.532.173-.932.173h-.002Zm-3-.872h2.782c-.038-.524-.178-.916-.425-1.176-.246-.26-.568-.391-.97-.391-.403 0-.697.13-.942.395-.246.265-.393.654-.445 1.172Zm7.079 1.398v1.281c0 .313-.072.546-.22.7a.731.731 0 0 1-.556.233.702.702 0 0 1-.545-.236c-.143-.156-.213-.389-.213-.697V24.56c0-.69.249-1.034.747-1.034.255 0 .439.081.55.242.113.16.174.398.185.712.183-.314.371-.552.566-.712.192-.16.45-.242.773-.242.324 0 .636.081.94.242.302.16.454.375.454.64a.611.611 0 0 1-.194.464.6.6 0 0 1-.42.183c-.056 0-.191-.034-.406-.104a1.865 1.865 0 0 0-.57-.104c-.225 0-.41.059-.55.176-.143.118-.254.295-.333.526a3.666 3.666 0 0 0-.163.828c-.03.32-.045.71-.045 1.172v.002Zm4.914-3.173v.185c.27-.355.566-.618.885-.785a2.35 2.35 0 0 1 1.104-.251c.416 0 .767.088 1.084.265.319.176.556.425.712.746.102.188.168.39.197.607.03.217.046.495.046.832v2.855c0 .308-.07.541-.21.697a.696.696 0 0 1-.548.236.717.717 0 0 1-.557-.242c-.143-.161-.213-.392-.213-.693v-2.556c0-.505-.07-.894-.21-1.161-.14-.267-.421-.403-.84-.403a1.24 1.24 0 0 0-.746.244 1.42 1.42 0 0 0-.496.672c-.074.229-.113.657-.113 1.281v1.923c0 .312-.072.545-.217.7a.726.726 0 0 1-.559.232.687.687 0 0 1-.545-.242c-.143-.16-.213-.391-.213-.692v-4.435c0-.292.064-.511.19-.654a.662.662 0 0 1 .523-.217c.136 0 .256.032.366.095a.672.672 0 0 1 .26.288c.066.129.1.282.1.466v.006Z"/>
      <path fill="#E53CA9" d="M88.28 22.123v2.344c.287-.301.58-.53.882-.688.298-.158.67-.24 1.113-.24.509 0 .957.12 1.34.362.384.242.68.593.893 1.052.213.46.317 1.003.317 1.634 0 .464-.06.891-.177 1.278-.117.387-.29.724-.513 1.01a2.329 2.329 0 0 1-.817.66 2.39 2.39 0 0 1-1.06.233c-.234 0-.458-.027-.664-.084a2.018 2.018 0 0 1-.532-.221 2.236 2.236 0 0 1-.373-.283 5.965 5.965 0 0 1-.407-.44v.152c0 .288-.07.507-.209.654a.687.687 0 0 1-.53.222.662.662 0 0 1-.52-.222c-.128-.147-.194-.366-.194-.654v-6.699c0-.31.063-.545.188-.706a.633.633 0 0 1 .525-.24c.235 0 .418.077.545.229.127.152.192.369.192.65v-.003Zm.072 4.559c0 .61.14 1.08.418 1.407.279.328.645.491 1.1.491.387 0 .72-.167.998-.502.278-.335.418-.817.418-1.441a2.84 2.84 0 0 0-.174-1.046 1.5 1.5 0 0 0-.496-.676 1.223 1.223 0 0 0-.746-.24c-.283 0-.552.08-.78.24a1.56 1.56 0 0 0-.54.692c-.13.301-.196.66-.196 1.077l-.002-.002Zm9.584 2.218a4.778 4.778 0 0 1-1.077.649 2.995 2.995 0 0 1-1.165.217 2.2 2.2 0 0 1-1.037-.233 1.707 1.707 0 0 1-.688-.632 1.648 1.648 0 0 1-.242-.866c0-.419.134-.778.399-1.073.267-.296.63-.495 1.095-.595a46.8 46.8 0 0 1 .724-.151 31.1 31.1 0 0 0 .99-.217c.277-.066.575-.145.897-.24-.018-.405-.1-.702-.245-.892-.145-.19-.443-.282-.896-.282-.389 0-.683.054-.88.162a1.445 1.445 0 0 0-.507.49c-.14.216-.24.359-.298.43-.06.07-.184.103-.374.103a.648.648 0 0 1-.445-.165.543.543 0 0 1-.188-.425c0-.27.095-.532.287-.788.19-.255.489-.464.894-.629.405-.165.907-.246 1.511-.246.674 0 1.204.079 1.59.24.388.158.66.411.818.755.158.344.24.801.24 1.371 0 .36 0 .665-.003.917 0 .25-.004.529-.009.837 0 .287.048.588.143.902.095.313.142.514.142.605 0 .158-.074.3-.221.43a.746.746 0 0 1-.503.194c-.158 0-.312-.075-.466-.222a3.25 3.25 0 0 1-.489-.642l.003-.005Zm-.102-2.22c-.224.083-.552.17-.98.262-.43.093-.726.159-.891.201a1.21 1.21 0 0 0-.473.254c-.15.124-.224.3-.224.525 0 .224.088.43.265.593.176.162.407.244.692.244.303 0 .584-.066.84-.2.255-.133.445-.305.565-.513.138-.233.208-.615.208-1.147v-.22h-.002Zm4.457-2.303v.185c.269-.355.566-.618.885-.785a2.35 2.35 0 0 1 1.104-.251c.416 0 .767.088 1.084.265.319.176.556.425.712.746.102.188.168.39.197.607.03.217.045.495.045.832v2.855c0 .308-.07.541-.21.697a.697.697 0 0 1-.548.236.715.715 0 0 1-.556-.242c-.143-.161-.213-.392-.213-.693v-2.556c0-.505-.07-.894-.21-1.161-.141-.267-.421-.403-.84-.403a1.24 1.24 0 0 0-.746.244 1.425 1.425 0 0 0-.496.672c-.074.229-.113.657-.113 1.281v1.923c0 .312-.072.545-.217.7a.726.726 0 0 1-.559.232.686.686 0 0 1-.545-.242c-.143-.16-.213-.391-.213-.692v-4.435c0-.292.063-.511.19-.654a.662.662 0 0 1 .523-.217.666.666 0 0 1 .626.382c.066.13.1.283.1.467v.006Zm9.38 4.685-1.355-2.226-.832.787v1.22c0 .296-.077.522-.233.683a.738.738 0 0 1-.537.24.7.7 0 0 1-.556-.235c-.136-.157-.202-.39-.202-.697v-6.541c0-.342.066-.6.197-.779a.656.656 0 0 1 .561-.267c.242 0 .423.082.561.242.138.161.209.399.209.715v3.72l1.726-1.81c.213-.224.376-.378.489-.462a.682.682 0 0 1 .409-.124c.192 0 .351.061.478.183a.61.61 0 0 1 .19.457c0 .224-.209.525-.625.899l-.814.746 1.574 2.473c.116.183.199.324.252.419a.598.598 0 0 1 .076.271c0 .245-.065.435-.199.577a.688.688 0 0 1-.525.21c-.187 0-.332-.05-.432-.151-.102-.102-.237-.285-.409-.552l-.003.002Zm3.265-6.249a.809.809 0 0 1-.547-.197c-.152-.131-.229-.317-.229-.556a.69.69 0 0 1 .233-.537.787.787 0 0 1 .543-.21c.206 0 .376.063.53.19.154.127.231.312.231.557 0 .244-.075.42-.224.554a.777.777 0 0 1-.534.199h-.003Zm.758 1.586v4.435c0 .307-.072.54-.219.697a.726.726 0 0 1-.557.235.693.693 0 0 1-.547-.242c-.141-.16-.211-.392-.211-.693v-4.389c0-.303.07-.532.211-.686a.706.706 0 0 1 .547-.23.74.74 0 0 1 .557.23c.147.154.219.367.219.64v.003Zm2.98-.022v.185c.269-.355.566-.618.885-.785a2.347 2.347 0 0 1 1.104-.251c.416 0 .767.088 1.084.265.319.176.556.425.712.746.102.188.168.39.197.607.029.217.045.495.045.832v2.855c0 .308-.07.541-.21.697a.697.697 0 0 1-.548.236.715.715 0 0 1-.556-.242c-.143-.161-.213-.392-.213-.693v-2.556c0-.505-.07-.894-.21-1.161-.141-.267-.421-.403-.84-.403a1.24 1.24 0 0 0-.746.244 1.425 1.425 0 0 0-.496.672c-.074.229-.113.657-.113 1.281v1.923c0 .312-.072.545-.217.7a.734.734 0 0 1-.559.232.685.685 0 0 1-.545-.242c-.143-.16-.213-.391-.213-.692v-4.435c0-.292.063-.511.19-.654a.662.662 0 0 1 .523-.217.666.666 0 0 1 .626.382c.066.13.1.283.1.467v.006Zm11.202.273v4.457c0 .51-.055.948-.163 1.315-.109.366-.283.67-.523.91-.24.24-.554.418-.941.533-.387.116-.871.175-1.448.175-.529 0-1-.075-1.416-.222-.417-.147-.736-.34-.962-.573-.224-.235-.337-.475-.337-.721 0-.188.063-.34.192-.457a.656.656 0 0 1 .462-.177c.224 0 .421.1.59.299.082.102.168.203.256.305.088.102.186.193.292.265.106.072.235.127.385.163.149.036.321.054.518.054.396 0 .706-.054.925-.165a.953.953 0 0 0 .462-.464c.088-.199.14-.412.153-.638.016-.226.028-.59.034-1.093-.235.33-.509.582-.816.754-.31.172-.677.258-1.105.258-.513 0-.961-.131-1.346-.394-.384-.262-.678-.629-.884-1.102-.206-.473-.31-1.018-.31-1.636 0-.461.063-.877.187-1.246.125-.369.306-.683.537-.94a2.3 2.3 0 0 1 .803-.576 2.526 2.526 0 0 1 1-.195c.434 0 .812.084 1.129.25.319.167.615.427.889.784v-.208c0-.267.066-.473.197-.617a.645.645 0 0 1 .507-.22c.296 0 .493.097.59.29.098.192.147.47.147.834l-.004-.002Zm-4.446 1.944c0 .622.136 1.092.407 1.41a1.32 1.32 0 0 0 1.054.477c.256 0 .496-.068.722-.206a1.52 1.52 0 0 0 .555-.618c.142-.276.212-.608.212-1.002 0-.627-.138-1.113-.414-1.462a1.32 1.32 0 0 0-1.088-.522c-.45 0-.79.167-1.054.5-.265.332-.396.807-.396 1.423h.002Z"/>
      <path fill="#000" d="M54.423 15.596c.504 0 .941.178 1.307.536.358.357.537.79.537 1.294 0 .505-.179.95-.537 1.308-.366.357-.8.536-1.307.536h-11.48c-.358 0-.688-.097-.991-.292a1.717 1.717 0 0 1-.677-.77 1.739 1.739 0 0 1-.163-1.015c.048-.35.188-.66.421-.934l8.973-10.781h-7.561a1.78 1.78 0 0 1-1.308-.537 1.765 1.765 0 0 1-.536-1.294c0-.504.179-.937.536-1.294a1.756 1.756 0 0 1 1.308-.548h11.48c.358 0 .688.098.991.292.296.195.52.45.677.77.147.325.199.665.151 1.015a1.695 1.695 0 0 1-.41.946l-8.973 10.77h7.562v-.002Zm4.235 3.477a1.727 1.727 0 0 1-.92-1.061 1.756 1.756 0 0 1 .092-1.4l6.896-13.79c.156-.31.38-.562.677-.747.296-.179.617-.27.968-.27.35 0 .672.091.969.27.296.188.52.436.676.746l6.885 13.79c.233.45.27.919.104 1.4-.163.483-.47.838-.92 1.062a1.802 1.802 0 0 1-1.774-.07 1.794 1.794 0 0 1-.688-.758l-1.225-2.428h-8.06l-1.214 2.428a1.72 1.72 0 0 1-1.06.92 1.76 1.76 0 0 1-1.401-.092h-.005Zm5.519-6.93h4.387L66.37 7.756l-2.194 4.387ZM89.8 15.596c.504 0 .94.178 1.307.536.358.357.537.79.537 1.294 0 .505-.18.95-.537 1.308-.366.357-.8.536-1.307.536H78.32c-.358 0-.688-.097-.991-.292a1.717 1.717 0 0 1-.677-.77 1.74 1.74 0 0 1-.163-1.015c.048-.35.188-.66.421-.934l8.973-10.781h-7.561c-.514 0-.948-.18-1.308-.537a1.765 1.765 0 0 1-.536-1.294c0-.504.179-.937.536-1.294a1.757 1.757 0 0 1 1.308-.548h11.48a1.8 1.8 0 0 1 .99.292c.297.195.521.45.677.77.148.325.2.665.152 1.015a1.696 1.696 0 0 1-.41.946l-8.973 10.77H89.8v-.002Zm3.674-5.053c0-2.411.85-4.468 2.554-6.172 1.71-1.71 3.77-2.566 6.173-2.566 2.402 0 4.468.856 6.172 2.566 1.71 1.704 2.565 3.76 2.565 6.172s-.855 4.462-2.565 6.172c-1.704 1.704-3.761 2.555-6.172 2.555-2.412 0-4.462-.85-6.173-2.555-1.703-1.71-2.554-3.769-2.554-6.172Zm13.79 0c0-1.391-.493-2.581-1.482-3.57-.995-.995-2.19-1.493-3.581-1.493-1.392 0-2.582.498-3.57 1.493-.99.989-1.483 2.179-1.483 3.57 0 1.392.494 2.582 1.482 3.57.989.99 2.179 1.483 3.571 1.483 1.391 0 2.586-.494 3.581-1.482.989-.99 1.482-2.18 1.482-3.57Zm5.507 0c0-2.411.851-4.468 2.554-6.172 1.711-1.71 3.77-2.566 6.173-2.566 2.402 0 4.468.856 6.172 2.566 1.71 1.704 2.565 3.76 2.565 6.172s-.855 4.462-2.565 6.172c-1.704 1.704-3.761 2.555-6.172 2.555-2.412 0-4.462-.85-6.173-2.555-1.703-1.71-2.554-3.769-2.554-6.172Zm13.79 0c0-1.391-.493-2.581-1.482-3.57-.995-.995-2.19-1.493-3.581-1.493-1.392 0-2.582.498-3.571 1.493-.988.989-1.482 2.179-1.482 3.57 0 1.392.494 2.582 1.482 3.57.989.99 2.179 1.483 3.571 1.483 1.391 0 2.586-.494 3.581-1.482.989-.99 1.482-2.18 1.482-3.57Z"/>
    </g>
  </g>
  <defs>
    <clipPath id="a">
      <path fill="#fff" d="M0 0h136v32.042H0z"/>
    </clipPath>
    <clipPath id="b">
      <path fill="#fff" d="M0 0h130.238v32.042H0z"/>
    </clipPath>
  </defs>
</svg>
