<svg xmlns="http://www.w3.org/2000/svg" width="191" height="45" fill="none" viewBox="0 0 191 45">
  <g clip-path="url(#a)">
    <path fill="#2887F9" d="M36.605 0H9.151a9.151 9.151 0 1 0 0 18.302h27.454a9.151 9.151 0 0 0 0-18.302Z"/>
    <path fill="#E53CA9" d="M36.605 25.166H9.151a9.151 9.151 0 1 0 0 18.302h27.454a9.151 9.151 0 0 0 0-18.302Z"/>
    <path fill="#3D33D1" d="M30.389 2.456 3.05 27.603a9.151 9.151 0 1 0 12.39 13.47l27.34-25.146a9.151 9.151 0 0 0-12.39-13.47Z"/>
    <path fill="#2887F9" d="M64.497 37.58v2.867c0 .45-.101.79-.308 1.016-.206.226-.477.34-.813.34-.337 0-.591-.114-.795-.34-.203-.225-.305-.565-.305-1.016v-3.435c0-.544-.019-.963-.054-1.262-.038-.298-.136-.546-.299-.737-.162-.19-.419-.29-.772-.29-.705 0-1.169.242-1.391.729-.223.483-.337 1.178-.337 2.084v2.914c0 .448-.102.785-.305 1.013a1.02 1.02 0 0 1-.801.344c-.33 0-.594-.115-.8-.344-.207-.228-.312-.565-.312-1.013v-6.165c0-.403.092-.711.28-.924a.94.94 0 0 1 .737-.315c.305 0 .54.099.737.296.197.197.295.47.295.816v.207c.375-.448.773-.776 1.201-.988.426-.21.9-.315 1.42-.315.522 0 1.008.108 1.399.324.39.216.712.543.963.979.362-.442.753-.77 1.169-.982a2.992 2.992 0 0 1 1.382-.321c.588 0 1.097.114 1.522.346.426.232.744.563.957.995.184.39.276 1.004.276 1.84v4.207c0 .451-.102.791-.308 1.017-.207.225-.477.34-.814.34-.336 0-.594-.115-.8-.344-.207-.228-.312-.565-.312-1.013v-3.623a7.93 7.93 0 0 0-.06-1.112 1.252 1.252 0 0 0-.321-.702c-.175-.187-.438-.283-.788-.283a1.48 1.48 0 0 0-.81.251 1.726 1.726 0 0 0-.598.68c-.159.362-.238 1.004-.238 1.926l.003-.007Zm15.201-.158a5.1 5.1 0 0 1-.298 1.776c-.2.543-.49 1.007-.868 1.398-.378.39-.832.69-1.356.896-.528.21-1.119.311-1.777.311-.657 0-1.239-.104-1.76-.314a3.907 3.907 0 0 1-1.354-.903 3.893 3.893 0 0 1-.867-1.388 5.087 5.087 0 0 1-.296-1.773c0-.648.099-1.249.299-1.792.2-.544.486-1.005.861-1.389a3.78 3.78 0 0 1 1.357-.886 4.82 4.82 0 0 1 1.76-.312 4.84 4.84 0 0 1 1.776.315c.531.21.989.511 1.367.899.378.39.667.852.864 1.389a5.11 5.11 0 0 1 .296 1.776l-.004-.003Zm-2.163 0c0-.88-.194-1.564-.582-2.053-.388-.49-.906-.734-1.56-.734-.423 0-.791.108-1.112.327-.321.22-.569.54-.744.966-.175.426-.26.925-.26 1.494 0 .568.085 1.055.257 1.474.172.423.416.743.734.966.318.222.693.337 1.125.337.651 0 1.172-.245 1.56-.737.388-.493.582-1.173.582-2.04Zm9.767 3.148v-.212c-.289.33-.575.6-.858.81a3.298 3.298 0 0 1-.915.473c-.33.108-.69.162-1.077.162-.515 0-.995-.108-1.433-.327-.439-.22-.82-.53-1.14-.934a4.225 4.225 0 0 1-.732-1.43 6.107 6.107 0 0 1-.247-1.776c0-1.347.327-2.396.985-3.15.657-.752 1.522-1.127 2.596-1.127.62 0 1.144.108 1.57.32.425.214.841.541 1.248.983V31.18c0-.442.09-.775.264-1.004.175-.226.426-.34.753-.34s.578.105.753.311c.175.207.264.515.264.919v9.504c0 .41-.096.718-.283.924a.953.953 0 0 1-.734.308.94.94 0 0 1-.73-.32c-.192-.213-.29-.518-.29-.912h.006Zm-4.239-3.164c0 .584.093 1.08.274 1.493.18.41.429.721.746.928.315.21.661.311 1.033.311.372 0 .725-.098 1.04-.295.314-.197.562-.499.75-.909.187-.407.279-.915.279-1.528 0-.572-.092-1.068-.28-1.481-.187-.413-.438-.728-.756-.947a1.802 1.802 0 0 0-1.046-.327 1.79 1.79 0 0 0-1.058.337c-.311.222-.55.543-.721.962-.172.42-.257.903-.257 1.456h-.003Zm14.452.546H93.3c.007.49.105.922.296 1.294.19.374.448.654.766.845.317.19.67.282 1.055.282.257 0 .492-.028.705-.088.213-.06.42-.156.62-.283.2-.13.384-.267.553-.416.168-.147.387-.347.654-.601.111-.095.267-.143.474-.143.222 0 .4.06.537.181.136.12.206.292.206.515 0 .194-.076.422-.229.683a2.68 2.68 0 0 1-.69.75 3.931 3.931 0 0 1-1.159.594c-.467.159-1 .238-1.605.238-1.385 0-2.459-.394-3.228-1.185-.769-.788-1.153-1.859-1.153-3.212 0-.636.095-1.227.282-1.773a3.98 3.98 0 0 1 .83-1.402c.362-.39.81-.69 1.34-.896a4.777 4.777 0 0 1 1.767-.311c.842 0 1.564.178 2.167.534.604.356 1.055.813 1.354 1.376a3.64 3.64 0 0 1 .451 1.722c0 .543-.156.893-.467 1.055-.311.162-.747.241-1.309.241h-.003ZM93.3 36.73h3.909c-.054-.737-.251-1.287-.598-1.652-.346-.366-.797-.55-1.363-.55-.565 0-.978.184-1.322.556-.346.372-.553.918-.626 1.646Zm9.944 1.963v1.798c0 .439-.102.766-.308.982-.207.22-.467.327-.782.327a.986.986 0 0 1-.766-.33c-.2-.22-.298-.547-.298-.979v-6c0-.968.349-1.451 1.048-1.451.359 0 .617.114.772.34.159.225.245.559.261 1 .257-.441.521-.775.794-1 .27-.226.633-.34 1.087-.34.454 0 .893.114 1.319.34.425.225.638.527.638.899 0 .264-.092.48-.273.651-.181.172-.378.258-.588.258-.079 0-.27-.048-.572-.146a2.62 2.62 0 0 0-.801-.147c-.314 0-.575.083-.772.248-.2.166-.356.413-.467.737a5.139 5.139 0 0 0-.229 1.163c-.041.452-.063.998-.063 1.646v.004Zm6.901-4.459v.261c.379-.499.795-.867 1.243-1.102.451-.236.966-.353 1.55-.353.585 0 1.078.124 1.523.372a2.34 2.34 0 0 1 1 1.048c.143.264.236.547.277.852.041.305.063.696.063 1.17v4.01c0 .431-.098.759-.295.978a.977.977 0 0 1-.769.33c-.315 0-.582-.114-.782-.34-.2-.225-.298-.55-.298-.972v-3.59c0-.71-.099-1.256-.296-1.63-.197-.376-.591-.566-1.179-.566a1.74 1.74 0 0 0-1.048.343 1.99 1.99 0 0 0-.696.944c-.105.32-.159.921-.159 1.798v2.7c0 .44-.102.767-.305.983a1.02 1.02 0 0 1-.785.327.964.964 0 0 1-.766-.34c-.2-.226-.298-.55-.298-.972v-6.228c0-.41.089-.718.266-.918.178-.204.423-.306.734-.306.191 0 .36.045.515.134a.943.943 0 0 1 .366.403c.092.182.139.398.139.655v.01Z"/>
    <path fill="#E53CA9" d="M123.98 31.07v3.292a4.874 4.874 0 0 1 1.24-.966c.419-.223.94-.337 1.563-.337.715 0 1.344.168 1.881.508.54.34.956.833 1.255 1.478.299.645.445 1.407.445 2.294a6.17 6.17 0 0 1-.248 1.795 4.297 4.297 0 0 1-.721 1.417c-.315.4-.699.709-1.147.928-.451.22-.947.328-1.487.328-.331 0-.645-.039-.935-.118a2.832 2.832 0 0 1-.746-.311 3.128 3.128 0 0 1-.525-.398 8.375 8.375 0 0 1-.571-.616v.213c0 .403-.099.712-.293.918a.964.964 0 0 1-.743.312c-.302 0-.55-.105-.731-.312-.181-.206-.273-.515-.273-.918v-9.409c0-.435.089-.766.263-.991.175-.223.423-.337.737-.337.331 0 .588.108.766.321.178.213.27.518.27.912v-.003Zm.102 6.402c0 .858.197 1.516.588 1.977.391.46.905.69 1.544.69.544 0 1.011-.236 1.401-.706.391-.47.588-1.147.588-2.024 0-.569-.082-1.058-.244-1.468-.162-.41-.394-.728-.696-.95a1.719 1.719 0 0 0-1.049-.337c-.397 0-.775.111-1.096.337-.321.222-.575.546-.756.972-.185.423-.277.928-.277 1.513l-.003-.004Zm13.46 3.114a6.67 6.67 0 0 1-1.512.912 4.213 4.213 0 0 1-1.637.305c-.553 0-1.039-.108-1.455-.327a2.39 2.39 0 0 1-.966-.886 2.311 2.311 0 0 1-.34-1.217c0-.588.187-1.093.559-1.506.375-.417.887-.696 1.538-.836.137-.032.477-.102 1.017-.213a44.03 44.03 0 0 0 1.392-.305 24.08 24.08 0 0 0 1.258-.337c-.026-.569-.14-.985-.343-1.252-.204-.267-.623-.397-1.259-.397-.546 0-.959.076-1.236.229a2.03 2.03 0 0 0-.711.686 6.968 6.968 0 0 1-.42.604c-.082.098-.257.146-.524.146a.91.91 0 0 1-.626-.232.762.762 0 0 1-.264-.597c0-.379.134-.747.404-1.106.267-.36.686-.652 1.255-.884.569-.231 1.274-.346 2.122-.346.947 0 1.691.111 2.234.337.544.222.925.578 1.147 1.061.223.483.337 1.125.337 1.926 0 .505 0 .934-.003 1.287 0 .352-.006.743-.013 1.175 0 .404.067.826.2 1.268.134.439.201.721.201.849 0 .222-.105.422-.312.603a1.047 1.047 0 0 1-.705.274c-.223 0-.439-.105-.655-.312-.216-.206-.445-.508-.686-.902l.003-.007Zm-.143-3.117c-.315.118-.775.239-1.376.369-.604.13-1.02.222-1.252.283-.232.06-.451.178-.664.355-.21.175-.314.423-.314.738 0 .314.123.604.371.832.248.229.572.343.973.343.425 0 .819-.092 1.178-.28.36-.187.626-.428.795-.72.194-.328.292-.865.292-1.611v-.309h-.003Zm6.26-3.235v.261c.378-.499.794-.867 1.242-1.102.451-.236.966-.353 1.551-.353.584 0 1.077.124 1.522.372a2.35 2.35 0 0 1 1.001 1.048c.143.264.235.547.276.852.041.305.064.696.064 1.17v4.01c0 .431-.099.759-.296.978a.977.977 0 0 1-.769.33c-.314 0-.581-.114-.781-.34-.201-.225-.299-.55-.299-.972v-3.59c0-.71-.099-1.256-.296-1.63-.197-.376-.591-.566-1.178-.566a1.74 1.74 0 0 0-1.049.343 1.99 1.99 0 0 0-.696.944c-.105.32-.159.921-.159 1.798v2.7c0 .44-.101.767-.305.983a1.02 1.02 0 0 1-.785.327.962.962 0 0 1-.765-.34c-.201-.226-.299-.55-.299-.972v-6.228c0-.41.089-.718.267-.918.178-.204.422-.306.734-.306.19 0 .359.045.515.134a.947.947 0 0 1 .365.403c.092.182.14.398.14.655v.01Zm13.174 6.581-1.904-3.127-1.169 1.106v1.713c0 .416-.108.734-.327.96-.219.222-.47.336-.753.336-.331 0-.591-.11-.782-.33-.191-.22-.283-.547-.283-.979v-9.186c0-.48.092-.842.277-1.093.184-.251.448-.375.788-.375s.594.114.788.34c.194.226.292.56.292 1.004v5.224l2.425-2.542c.298-.315.527-.53.686-.648a.957.957 0 0 1 .575-.175c.27 0 .492.086.67.257a.853.853 0 0 1 .267.642c0 .315-.292.737-.877 1.262l-1.144 1.048 2.212 3.473c.162.258.28.455.353.588.07.134.108.26.108.381 0 .344-.092.61-.28.81-.187.198-.432.296-.737.296-.264 0-.467-.07-.607-.213-.143-.143-.334-.4-.575-.775l-.003.003Zm4.585-8.776c-.299 0-.556-.092-.769-.277-.213-.184-.321-.444-.321-.781 0-.305.108-.556.327-.753a1.11 1.11 0 0 1 .763-.296c.289 0 .527.09.743.267.216.178.325.439.325.782s-.105.59-.315.778a1.09 1.09 0 0 1-.75.28h-.003Zm1.064 2.227v6.228c0 .432-.101.76-.308.979-.206.222-.467.33-.782.33a.978.978 0 0 1-.769-.34c-.197-.225-.295-.55-.295-.972v-6.164c0-.426.098-.747.295-.963a.996.996 0 0 1 .769-.324c.315 0 .576.108.782.324.207.216.308.515.308.9v.002Zm4.185-.032v.261c.378-.499.795-.867 1.243-1.102.451-.236.966-.353 1.55-.353.585 0 1.077.124 1.522.372.448.247.782.597 1.001 1.048.143.264.235.547.277.852.041.305.063.696.063 1.17v4.01c0 .431-.098.759-.295.978a.979.979 0 0 1-.769.33c-.315 0-.582-.114-.782-.34-.2-.225-.299-.55-.299-.972v-3.59c0-.71-.098-1.256-.295-1.63-.197-.376-.591-.566-1.179-.566a1.74 1.74 0 0 0-1.049.343 2.003 2.003 0 0 0-.696.944c-.104.32-.158.921-.158 1.798v2.7c0 .44-.102.767-.305.983a1.032 1.032 0 0 1-.785.327.964.964 0 0 1-.766-.34c-.2-.226-.299-.55-.299-.972v-6.228c0-.41.089-.718.267-.918.178-.204.423-.306.734-.306.191 0 .359.045.515.134a.947.947 0 0 1 .365.403c.092.182.14.398.14.655v.01Zm15.732.385v6.26c0 .715-.076 1.331-.229 1.846-.152.515-.397.94-.734 1.277-.337.337-.778.588-1.322.75-.543.162-1.223.245-2.033.245-.744 0-1.405-.105-1.989-.312-.585-.206-1.033-.476-1.351-.803-.314-.331-.473-.668-.473-1.014 0-.264.089-.477.27-.642a.918.918 0 0 1 .648-.248c.315 0 .591.14.829.42.115.143.236.286.359.428.124.143.261.27.41.372.15.102.331.178.541.23.209.05.451.075.727.075.556 0 .992-.076 1.3-.232.308-.155.524-.371.648-.651s.197-.578.216-.896c.022-.318.038-.83.048-1.535a3.538 3.538 0 0 1-1.147 1.058c-.436.242-.95.363-1.551.363-.721 0-1.35-.185-1.891-.553-.54-.369-.953-.884-1.242-1.548-.289-.664-.435-1.43-.435-2.297 0-.648.089-1.233.263-1.75.175-.519.429-.96.753-1.32a3.227 3.227 0 0 1 1.129-.81 3.542 3.542 0 0 1 1.404-.273c.61 0 1.141.117 1.586.35.448.235.864.6 1.248 1.102v-.292c0-.375.092-.665.277-.868a.905.905 0 0 1 .712-.308c.416 0 .692.137.829.407.136.27.206.66.206 1.172l-.006-.003Zm-6.244 2.73c0 .873.191 1.534.572 1.98.381.447.874.67 1.481.67.359 0 .696-.096 1.014-.29.317-.19.578-.483.778-.867.2-.388.299-.855.299-1.408 0-.88-.194-1.563-.582-2.052-.387-.49-.896-.734-1.528-.734s-1.109.235-1.481.702c-.372.467-.556 1.134-.556 1.998h.003Z"/>
    <path fill="#000" d="M76.432 21.903c.709 0 1.322.25 1.837.753.502.502.753 1.109.753 1.817 0 .709-.251 1.335-.753 1.837a2.537 2.537 0 0 1-1.837.753H60.309a2.53 2.53 0 0 1-1.392-.41 2.413 2.413 0 0 1-.95-1.08 2.442 2.442 0 0 1-.228-1.427c.066-.493.263-.928.59-1.312L70.933 7.693h-10.62a2.5 2.5 0 0 1-1.836-.753 2.478 2.478 0 0 1-.753-1.818c0-.708.25-1.315.753-1.817a2.467 2.467 0 0 1 1.836-.77h16.123c.502 0 .966.137 1.392.41.416.274.73.633.95 1.08.207.458.28.935.213 1.428a2.381 2.381 0 0 1-.575 1.328L65.813 21.906h10.619v-.003Zm5.948 4.884a2.426 2.426 0 0 1-1.293-1.49 2.467 2.467 0 0 1 .13-1.968l9.685-19.367c.22-.435.534-.788.95-1.048a2.581 2.581 0 0 1 1.36-.378c.493 0 .944.127 1.36.378.417.264.731.613.95 1.048l9.67 19.367c.327.633.378 1.29.146 1.967a2.497 2.497 0 0 1-1.293 1.49 2.535 2.535 0 0 1-2.492-.099 2.531 2.531 0 0 1-.966-1.063l-1.719-3.41H87.547l-1.703 3.41a2.425 2.425 0 0 1-1.49 1.293 2.478 2.478 0 0 1-1.967-.13h-.007Zm7.75-9.733h6.162l-3.08-6.161-3.082 6.16Zm35.986 4.849a2.54 2.54 0 0 1 1.836.753c.502.502.753 1.109.753 1.817 0 .709-.251 1.335-.753 1.837a2.535 2.535 0 0 1-1.836.753h-16.123a2.53 2.53 0 0 1-1.392-.41 2.414 2.414 0 0 1-.95-1.08 2.45 2.45 0 0 1-.229-1.427c.067-.493.264-.928.591-1.312l12.602-15.141h-10.619a2.505 2.505 0 0 1-1.836-.753 2.476 2.476 0 0 1-.754-1.818c0-.708.251-1.315.754-1.817a2.466 2.466 0 0 1 1.836-.77h16.123c.502 0 .966.137 1.392.41.416.274.73.633.95 1.08.206.458.279.935.213 1.428a2.378 2.378 0 0 1-.576 1.328l-12.602 15.125h10.62v-.003Zm5.16-7.096c0-3.387 1.195-6.275 3.587-8.668 2.403-2.402 5.294-3.603 8.669-3.603 3.374 0 6.275 1.2 8.668 3.603 2.402 2.393 3.603 5.281 3.603 8.668 0 3.388-1.201 6.266-3.603 8.668-2.393 2.393-5.281 3.588-8.668 3.588-3.388 0-6.266-1.195-8.669-3.587-2.392-2.403-3.587-5.294-3.587-8.669Zm19.367 0c0-1.954-.693-3.625-2.081-5.014-1.398-1.398-3.076-2.097-5.03-2.097-1.955 0-3.626.699-5.015 2.097-1.388 1.389-2.081 3.06-2.081 5.014 0 1.954.693 3.626 2.081 5.014 1.389 1.389 3.06 2.082 5.015 2.082 1.954 0 3.632-.693 5.03-2.082 1.388-1.388 2.081-3.06 2.081-5.014Zm7.734 0c0-3.387 1.195-6.275 3.587-8.668 2.403-2.402 5.294-3.603 8.669-3.603 3.374 0 6.275 1.2 8.668 3.603 2.402 2.393 3.603 5.281 3.603 8.668 0 3.388-1.201 6.266-3.603 8.668-2.393 2.393-5.281 3.588-8.668 3.588-3.388 0-6.266-1.195-8.669-3.587-2.392-2.403-3.587-5.294-3.587-8.669Zm19.367 0c0-1.954-.693-3.625-2.081-5.014-1.398-1.398-3.076-2.097-5.03-2.097-1.955 0-3.626.699-5.014 2.097-1.389 1.389-2.082 3.06-2.082 5.014 0 1.954.693 3.626 2.082 5.014 1.388 1.389 3.059 2.082 5.014 2.082 1.954 0 3.632-.693 5.03-2.082 1.388-1.388 2.081-3.06 2.081-5.014Z"/>
  </g>
  <defs>
    <clipPath id="a">
      <path fill="#fff" d="M0 0h182.907v45H0z"/>
    </clipPath>
  </defs>
</svg>
