<svg width="14" height="14" viewBox="0 0 14 14" fill="none" xmlns="http://www.w3.org/2000/svg">
<path d="M12.8333 11.0833H9.33333V8.74996H7.77C7.105 10.1616 5.67 11.0833 4.08333 11.0833C1.83167 11.0833 0 9.25163 0 6.99996C0 4.74829 1.83167 2.91663 4.08333 2.91663C5.67 2.91663 7.09917 3.83829 7.77 5.24996H14V8.74996H12.8333V11.0833ZM10.5 9.91663H11.6667V7.58329H12.8333V6.41663H6.965L6.83083 6.02579C6.4225 4.86496 5.31417 4.08329 4.08333 4.08329C2.47333 4.08329 1.16667 5.38996 1.16667 6.99996C1.16667 8.60996 2.47333 9.91663 4.08333 9.91663C5.31417 9.91663 6.4225 9.13496 6.83083 7.97413L6.965 7.58329H10.5V9.91663ZM4.08333 8.74996C3.12083 8.74996 2.33333 7.96246 2.33333 6.99996C2.33333 6.03746 3.12083 5.24996 4.08333 5.24996C5.04583 5.24996 5.83333 6.03746 5.83333 6.99996C5.83333 7.96246 5.04583 8.74996 4.08333 8.74996ZM4.08333 6.41663C3.7625 6.41663 3.5 6.67913 3.5 6.99996C3.5 7.32079 3.7625 7.58329 4.08333 7.58329C4.40417 7.58329 4.66667 7.32079 4.66667 6.99996C4.66667 6.67913 4.40417 6.41663 4.08333 6.41663Z" fill="#086AFB"/>
</svg>
