<svg width="14" height="14" viewBox="0 0 14 14" fill="none" xmlns="http://www.w3.org/2000/svg">
<path d="M13.4444 3.88889H11.2589C10.9089 3.28222 10.4267 2.76111 9.84333 2.36444L11.1111 1.09667L10.0144 0L8.32667 1.68778C7.96889 1.60222 7.60333 1.55556 7.22222 1.55556C6.84111 1.55556 6.47556 1.60222 6.12556 1.68778L4.43 0L3.33333 1.09667L4.59333 2.36444C4.01778 2.76111 3.53556 3.28222 3.18556 3.88889H1V5.44444H2.62556C2.58667 5.70111 2.55556 5.95778 2.55556 6.22222V7H1V8.55556H2.55556V9.33333C2.55556 9.59778 2.58667 9.85444 2.62556 10.1111H1V11.6667H3.18556C3.99444 13.0589 5.49556 14 7.22222 14C8.94889 14 10.45 13.0589 11.2589 11.6667H13.4444V10.1111H11.8189C11.8578 9.85444 11.8889 9.59778 11.8889 9.33333V8.55556H13.4444V7H11.8889V6.22222C11.8889 5.95778 11.8578 5.70111 11.8189 5.44444H13.4444V3.88889ZM10.3333 7V9.33333C10.3333 9.50445 10.31 9.69889 10.2789 9.87778L10.2011 10.3833L9.91333 10.8889C9.35333 11.8533 8.32667 12.4444 7.22222 12.4444C6.11778 12.4444 5.09111 11.8456 4.53111 10.8889L4.24333 10.3911L4.16556 9.88556C4.13444 9.70667 4.11111 9.51222 4.11111 9.33333V6.22222C4.11111 6.04333 4.13444 5.84889 4.16556 5.67778L4.24333 5.17222L4.53111 4.66667C4.76444 4.26222 5.09111 3.91222 5.47222 3.64778L5.91556 3.34444L6.49111 3.20444C6.73222 3.14222 6.98111 3.11111 7.22222 3.11111C7.47111 3.11111 7.71222 3.14222 7.96111 3.20444L8.49 3.32889L8.96444 3.65556C9.35333 3.92 9.67222 4.26222 9.90556 4.67444L10.2011 5.18L10.2789 5.68556C10.31 5.85667 10.3333 6.05111 10.3333 6.22222V7ZM5.66667 8.55556H8.77778V10.1111H5.66667V8.55556ZM5.66667 5.44444H8.77778V7H5.66667V5.44444Z" fill="#086AFB"/>
</svg>
