<svg width="14" height="15" viewBox="0 0 14 15" fill="none" xmlns="http://www.w3.org/2000/svg">
<g clip-path="url(#clip0_257_8902)">
<path fill-rule="evenodd" clip-rule="evenodd" d="M5.3727 1.13354C5.88791 0.917148 6.4412 0.806003 7.00001 0.806643C7.55545 0.808661 8.10494 0.921094 8.61653 1.1374C9.12812 1.35371 9.5916 1.66958 9.98001 2.06664C10.7649 2.86842 11.2061 3.94466 11.21 5.06664V7.26664L12.43 8.50664C12.696 8.78463 12.8761 9.13344 12.9488 9.51123C13.0216 9.88903 12.9838 10.2798 12.84 10.6366C12.6984 10.9904 12.4541 11.2937 12.1387 11.5076C11.8233 11.7214 11.4511 11.836 11.07 11.8366H2.91001C2.52893 11.836 2.15675 11.7214 1.84133 11.5076C1.52591 11.2937 1.28166 10.9904 1.14001 10.6366C0.996239 10.2798 0.958449 9.88903 1.03117 9.51123C1.10389 9.13344 1.28404 8.78463 1.55001 8.50664L2.77001 7.26664V5.06664C2.7739 3.94466 3.21516 2.86842 4.00001 2.06664C4.39077 1.66718 4.85749 1.34992 5.3727 1.13354ZM11.6523 9.79748C11.6292 9.68041 11.5729 9.57248 11.49 9.48664L9.89001 7.85664V5.09664C9.89001 4.33017 9.58553 3.59508 9.04355 3.0531C8.50157 2.51112 7.76648 2.20664 7.00001 2.20664C6.23353 2.20664 5.49845 2.51112 4.95647 3.0531C4.41449 3.59508 4.11001 4.33017 4.11001 5.09664V7.85664L2.51001 9.48664C2.42713 9.57248 2.37078 9.68041 2.34772 9.79748C2.32466 9.91455 2.33587 10.0358 2.38001 10.1466C2.42344 10.2547 2.49789 10.3476 2.59399 10.4134C2.69009 10.4792 2.80352 10.5152 2.92001 10.5166H11.08C11.1965 10.5152 11.3099 10.4792 11.406 10.4134C11.5021 10.3476 11.5766 10.2547 11.62 10.1466C11.6641 10.0358 11.6754 9.91455 11.6523 9.79748ZM8.77997 13.4566H5.21997V14.8066H8.77997V13.4566Z" fill="#FFC9E9"/>
</g>
<defs>
<clipPath id="clip0_257_8902">
<rect width="12" height="14" fill="white" transform="translate(1 0.806641)"/>
</clipPath>
</defs>
</svg>
