<svg width="12" height="15" viewBox="0 0 12 15" fill="none" xmlns="http://www.w3.org/2000/svg">
<g clip-path="url(#clip0_257_8396)">
<path fill-rule="evenodd" clip-rule="evenodd" d="M4.3727 1.13354C4.88791 0.917148 5.4412 0.806003 6.00001 0.806643C6.55545 0.808661 7.10494 0.921094 7.61653 1.1374C8.12812 1.35371 8.5916 1.66958 8.98001 2.06664C9.76486 2.86842 10.2061 3.94466 10.21 5.06664V7.26664L11.43 8.50664C11.696 8.78463 11.8761 9.13344 11.9488 9.51123C12.0216 9.88903 11.9838 10.2798 11.84 10.6366C11.6984 10.9904 11.4541 11.2937 11.1387 11.5076C10.8233 11.7214 10.4511 11.836 10.07 11.8366H1.91001C1.52893 11.836 1.15675 11.7214 0.841329 11.5076C0.525907 11.2937 0.281665 10.9904 0.140008 10.6366C-0.00376113 10.2798 -0.0415505 9.88903 0.0311708 9.51123C0.103892 9.13344 0.284038 8.78463 0.550008 8.50664L1.77001 7.26664V5.06664C1.7739 3.94466 2.21516 2.86842 3.00001 2.06664C3.39077 1.66718 3.85749 1.34992 4.3727 1.13354ZM10.6523 9.79748C10.6292 9.68041 10.5729 9.57248 10.49 9.48664L8.89001 7.85664V5.09664C8.89001 4.33017 8.58553 3.59508 8.04355 3.0531C7.50157 2.51112 6.76648 2.20664 6.00001 2.20664C5.23353 2.20664 4.49845 2.51112 3.95647 3.0531C3.41449 3.59508 3.11001 4.33017 3.11001 5.09664V7.85664L1.51001 9.48664C1.42713 9.57248 1.37078 9.68041 1.34772 9.79748C1.32466 9.91455 1.33587 10.0358 1.38001 10.1466C1.42344 10.2547 1.49789 10.3476 1.59399 10.4134C1.69009 10.4792 1.80352 10.5152 1.92001 10.5166H10.08C10.1965 10.5152 10.3099 10.4792 10.406 10.4134C10.5021 10.3476 10.5766 10.2547 10.62 10.1466C10.6641 10.0358 10.6754 9.91455 10.6523 9.79748ZM7.77997 13.4566H4.21997V14.8066H7.77997V13.4566Z" fill="#E7038E"/>
</g>
<defs>
<clipPath id="clip0_257_8396">
<rect width="12" height="14" fill="white" transform="translate(0 0.806641)"/>
</clipPath>
</defs>
</svg>
