<svg width="24" height="24" viewBox="0 0 24 24" fill="none" xmlns="http://www.w3.org/2000/svg">
<rect width="24" height="24" rx="12" fill="white" fill-opacity="0.4"/>
<rect x="0.5" y="0.5" width="23" height="23" rx="11.5" stroke="#696F7A" stroke-opacity="0.5"/>
<path d="M15.5045 8.45089C15.9732 8.94196 16.3304 9.47768 16.5982 10.0804C16.8661 10.683 17 11.308 17 11.9554C17 12.8482 16.7545 13.6741 16.308 14.433C15.8616 15.192 15.2366 15.7946 14.4777 16.2411C13.7188 16.6875 12.8929 16.9107 12 16.9107C11.1518 16.9107 10.3482 16.7098 9.63393 16.308L7 17L7.71429 14.433C7.26786 13.6741 7.04464 12.8482 7.04464 11.9554C7.04464 11.0625 7.26786 10.2366 7.71429 9.47768C8.16071 8.71875 8.76339 8.11607 9.52232 7.66964C10.2812 7.22321 11.1071 7 12 7C12.6473 7 13.2723 7.13393 13.875 7.37946C14.4777 7.64732 15.0134 8.00446 15.5045 8.45089ZM12 16.0848C12.7366 16.0848 13.4286 15.9062 14.0759 15.5268C14.7009 15.1696 15.2143 14.6562 15.5938 14.0312C15.9732 13.4062 16.1741 12.7143 16.1741 11.9554C16.1741 11.4196 16.0625 10.9062 15.8393 10.3929C15.6161 9.90179 15.3036 9.45536 14.9018 9.05357C14.5 8.65179 14.0536 8.36161 13.5625 8.13839C13.0714 7.9375 12.5357 7.82589 12 7.82589C11.2411 7.82589 10.5491 8.02679 9.92411 8.38393C9.29911 8.76339 8.78571 9.27679 8.42857 9.90179C8.04911 10.5268 7.87054 11.2188 7.87054 11.9554C7.87054 12.7589 8.07143 13.4732 8.51786 14.1429L8.60714 14.2991L8.18304 15.817L9.74554 15.4152L9.90179 15.5045C10.5268 15.9062 11.2411 16.0848 12 16.0848ZM14.2545 12.9821L14.3214 13.0268C14.4107 13.0714 14.4777 13.1161 14.5 13.1384C14.5 13.183 14.5 13.25 14.5 13.3616C14.5 13.4955 14.4554 13.6071 14.4107 13.7411C14.3661 13.875 14.2321 13.9866 14.0536 14.1205C13.875 14.2545 13.7188 14.3214 13.5848 14.3214C13.3616 14.3661 13.1607 14.3661 12.9821 14.3214C12.7589 14.2768 12.4464 14.1875 12.0893 14.0089C11.3304 13.6964 10.6384 13.0714 10.0134 12.1786L9.96875 12.1339C9.63393 11.6875 9.47768 11.2634 9.47768 10.8616C9.47768 10.4821 9.61161 10.1473 9.87946 9.85714L9.90179 9.83482C9.99107 9.74554 10.1027 9.67857 10.2366 9.67857H10.5045C10.5491 9.67857 10.5938 9.70089 10.6384 9.72321C10.683 9.74554 10.7054 9.79018 10.75 9.87946L11.1295 10.7946C11.1741 10.8839 11.1741 10.9732 11.1518 11.0179C11.0625 11.1741 10.9732 11.308 10.8616 11.4196C10.7946 11.4866 10.75 11.5312 10.75 11.5759C10.7277 11.6205 10.75 11.6429 10.7946 11.6875C10.9955 12.0893 11.2411 12.3795 11.5312 12.6027C11.7321 12.7812 12.0446 12.9598 12.4688 13.1607C12.5804 13.2277 12.6696 13.2277 12.7366 13.1384C12.9152 12.9152 13.0491 12.7589 13.1384 12.6473C13.1607 12.6027 13.2054 12.558 13.25 12.558C13.2946 12.558 13.3393 12.5804 13.4062 12.5804C13.5179 12.625 13.808 12.7589 14.2545 12.9821Z" fill="#696F7A" fill-opacity="0.5"/>
</svg>
