<svg width="22" height="22" viewBox="0 0 22 22" fill="none" xmlns="http://www.w3.org/2000/svg">
<path d="M4.76007 3.00007C4.82864 4.01721 5.00007 5.0115 5.27435 5.96007L3.90293 7.3315C3.43436 5.96007 3.13721 4.50864 3.03436 3.00007H4.76007ZM16.0286 16.7372C17.0001 17.0115 17.9944 17.1829 19.0001 17.2515V18.9544C17.4915 18.8515 16.0401 18.5544 14.6572 18.0972L16.0286 16.7372ZM5.85721 0.714355H1.85721C1.22864 0.714355 0.714355 1.22864 0.714355 1.85721C0.714355 12.5886 9.4115 21.2858 20.1429 21.2858C20.7715 21.2858 21.2858 20.7715 21.2858 20.1429V16.1544C21.2858 15.5258 20.7715 15.0115 20.1429 15.0115C18.7258 15.0115 17.3429 14.7829 16.0629 14.3601C15.9486 14.3144 15.8229 14.3029 15.7086 14.3029C15.4115 14.3029 15.1258 14.4172 14.8972 14.6344L12.3829 17.1486C9.14864 15.4915 6.49721 12.8515 4.8515 9.61721L7.36578 7.10293C7.68578 6.78293 7.77721 6.33721 7.6515 5.93721C7.22864 4.65721 7.00007 3.28578 7.00007 1.85721C7.00007 1.22864 6.48578 0.714355 5.85721 0.714355Z" fill="#086AFB"/>
</svg>
