<svg width="14" height="14" viewBox="0 0 14 14" fill="none" xmlns="http://www.w3.org/2000/svg">
<path d="M9.1 5.6C9.1 5.215 9.415 4.9 9.8 4.9C10.185 4.9 10.5 5.215 10.5 5.6C10.5 5.985 10.185 6.3 9.8 6.3C9.415 6.3 9.1 5.985 9.1 5.6ZM4.2 4.9H7.7V3.5H4.2V4.9ZM14 3.85V8.729L12.026 9.387L10.85 13.3H7V11.9H5.6V13.3H1.75C1.75 13.3 0 7.378 0 5.25C0 3.122 1.722 1.4 3.85 1.4H7.35C7.987 0.553 9.002 0 10.15 0C10.731 0 11.2 0.469 11.2 1.05C11.2 1.197 11.172 1.33 11.116 1.456C11.018 1.694 10.934 1.967 10.892 2.261L12.481 3.85H14ZM12.6 5.25H11.9L9.45 2.8C9.45 2.345 9.513 1.897 9.632 1.463C8.953 1.638 8.4 2.142 8.169 2.8H3.85C2.499 2.8 1.4 3.899 1.4 5.25C1.4 6.566 2.254 9.905 2.807 11.9H4.2V10.5H8.4V11.9H9.807L10.892 8.295L12.6 7.721V5.25Z" fill="#696F7A" fill-opacity="0.5"/>
</svg>
