<svg width="14" height="14" viewBox="0 0 14 14" fill="none" xmlns="http://www.w3.org/2000/svg">
<path fill-rule="evenodd" clip-rule="evenodd" d="M1.4 1.40002H12.6C13.37 1.40002 14 2.03002 14 2.80002V11.2C14 11.97 13.37 12.6 12.6 12.6H1.4C0.63 12.6 0 11.97 0 11.2V2.80002C0 2.03002 0.63 1.40002 1.4 1.40002ZM1.4 11.2H12.6V2.80002H1.4V11.2ZM3.14306 9.10002V5.95002L2.51306 6.41202L2.10706 5.78902L3.33906 4.90002H3.94806V9.10002H3.14306ZM6.62899 5.63502C6.97899 5.63502 7.19599 5.85902 7.19599 6.13902C7.19599 6.39802 7.09799 6.58702 6.81799 6.88102C6.56599 7.14701 6.076 7.63701 5.32702 8.38599L5.32699 8.38602V9.10002H8.04999V8.40702H6.39099L6.36999 8.37202C6.66632 8.07569 6.90567 7.83905 7.08637 7.6604C7.19594 7.55208 7.28394 7.46507 7.34999 7.39902C7.77699 6.97902 7.99399 6.54502 7.99399 6.09702C7.99399 5.92902 7.95899 5.36902 7.35699 5.06102C7.02799 4.90002 6.47499 4.80902 5.99199 5.04002C5.45816 5.29392 5.31787 5.75973 5.29522 5.83493C5.29403 5.83888 5.29317 5.84175 5.29259 5.84346C5.29234 5.8442 5.29214 5.84472 5.29199 5.84502L5.99899 6.13902C6.06899 5.90802 6.26499 5.63502 6.62899 5.63502ZM9.78325 7.77126C9.81346 7.88197 9.94338 8.35803 10.493 8.35803C10.78 8.35803 11.116 8.16203 11.116 7.81903C11.116 7.43403 10.78 7.26603 10.388 7.26603H10.038V6.56602H10.36C10.591 6.56602 10.976 6.46802 10.976 6.06202C10.976 5.78902 10.759 5.60702 10.451 5.60702C10.101 5.60702 9.93298 5.83102 9.85598 6.05502L9.16298 5.76802C9.23998 5.53002 9.57598 4.90002 10.458 4.90002C11.2111 4.90002 11.5277 5.33645 11.5897 5.42184L11.592 5.42502C11.823 5.77502 11.788 6.23702 11.606 6.52402C11.501 6.67802 11.382 6.79003 11.242 6.86002V6.90902C11.438 6.98602 11.599 7.10503 11.718 7.27303C11.977 7.63703 11.949 8.16202 11.725 8.50502C11.669 8.59602 11.333 9.10003 10.493 9.10003C10.4923 9.10003 10.491 9.10006 10.489 9.10011C10.4118 9.10207 9.36524 9.12867 9.05798 8.04303L9.77898 7.75602C9.78012 7.75981 9.78152 7.76494 9.78325 7.77126Z" fill="#086AFB"/>
</svg>
