<svg width="14" height="14" viewBox="0 0 14 14" fill="none" xmlns="http://www.w3.org/2000/svg">
<path fill-rule="evenodd" clip-rule="evenodd" d="M12.5 7C12.5 10.0376 10.0376 12.5 7 12.5C3.96243 12.5 1.5 10.0376 1.5 7C1.5 3.96243 3.96243 1.5 7 1.5C10.0376 1.5 12.5 3.96243 12.5 7ZM14 7C14 10.866 10.866 14 7 14C3.13401 14 0 10.866 0 7C0 3.13401 3.13401 0 7 0C10.866 0 14 3.13401 14 7ZM6.0014 10C5.79072 10 5.58005 9.91691 5.43686 9.75918L3.20373 7.39124C2.91735 7.08392 2.93414 6.60195 3.2462 6.3196C3.5579 6.03724 4.04673 6.05379 4.33312 6.36114L6.00175 8.13095L9.66718 4.24245C9.95353 3.9351 10.4424 3.91855 10.7541 4.20091C11.0658 4.48323 11.0826 4.9652 10.7962 5.27255L6.56594 9.75918C6.42275 9.90847 6.21208 10 6.0014 10Z" fill="#E7038E"/>
</svg>
