<svg width="14" height="15" viewBox="0 0 14 15" fill="none" xmlns="http://www.w3.org/2000/svg">
<g clip-path="url(#clip0_214_301)">
<path d="M5.775 7.95C5.775 8.433 5.383 8.825 4.9 8.825C4.417 8.825 4.025 8.433 4.025 7.95C4.025 7.467 4.417 7.075 4.9 7.075C5.383 7.075 5.775 7.467 5.775 7.95ZM9.1 7.075C8.617 7.075 8.225 7.467 8.225 7.95C8.225 8.433 8.617 8.825 9.1 8.825C9.583 8.825 9.975 8.433 9.975 7.95C9.975 7.467 9.583 7.075 9.1 7.075ZM14 7.25C14 11.114 10.864 14.25 7 14.25C3.136 14.25 0 11.114 0 7.25C0 3.386 3.136 0.25 7 0.25C10.864 0.25 14 3.386 14 7.25ZM6.062 1.734C7.042 3.358 8.82 4.45 10.85 4.45C11.172 4.45 11.487 4.415 11.788 4.366C10.808 2.742 9.03 1.65 7 1.65C6.678 1.65 6.363 1.685 6.062 1.734ZM1.694 5.479C2.891 4.8 3.815 3.694 4.256 2.371C3.059 3.05 2.135 4.156 1.694 5.479ZM12.6 7.25C12.6 6.704 12.516 6.179 12.369 5.682C11.879 5.787 11.375 5.85 10.85 5.85C8.659 5.85 6.706 4.842 5.418 3.267C4.683 5.059 3.22 6.466 1.4 7.152C1.407 7.18 1.4 7.215 1.4 7.25C1.4 10.337 3.913 12.85 7 12.85C10.087 12.85 12.6 10.337 12.6 7.25Z" fill="#E7038E"/>
</g>
<defs>
<clipPath id="clip0_214_301">
<rect width="14" height="14" fill="white" transform="translate(0 0.25)"/>
</clipPath>
</defs>
</svg>
