<svg width="18" height="18" viewBox="0 0 18 18" fill="none" xmlns="http://www.w3.org/2000/svg">
<path d="M1.05866e-09 8.99867C-8.18295e-06 9.22274 0.0474337 9.44459 0.139592 9.65143C0.231749 9.85826 0.3668 10.046 0.536947 10.2038C0.707094 10.3616 0.908968 10.4863 1.13093 10.5708C1.35289 10.6552 1.59054 10.6977 1.83018 10.6959H11.7462L8.41582 13.8098C8.24528 13.9676 8.1099 14.1555 8.01751 14.3626C7.92511 14.5696 7.87754 14.7918 7.87754 15.0161C7.87754 15.2405 7.92511 15.4626 8.01751 15.6697C8.1099 15.8767 8.24528 16.0646 8.41582 16.2224C8.7606 16.5377 9.22369 16.7142 9.70595 16.7142C10.1882 16.7142 10.6513 16.5377 10.9961 16.2224L17.4617 10.205C17.6323 10.0471 17.7676 9.85926 17.86 9.65221C17.9524 9.44515 18 9.22302 18 8.99867C18 8.77431 17.9524 8.55218 17.86 8.34513C17.7676 8.13807 17.6323 7.9502 17.4617 7.79237L10.9961 1.78896C10.8273 1.6295 10.6264 1.50291 10.4049 1.41652C10.1835 1.33013 9.9459 1.28564 9.70595 1.28564C9.466 1.28564 9.22844 1.33013 9.00699 1.41652C8.78554 1.50291 8.58461 1.6295 8.41582 1.78896C8.24573 1.94558 8.11066 2.13226 8.01846 2.33815C7.92626 2.54404 7.87878 2.76503 7.87878 2.98824C7.87878 3.21145 7.92626 3.43243 8.01846 3.63832C8.11066 3.84421 8.24573 4.0309 8.41582 4.18752L11.7462 7.30144H1.83018C1.59054 7.29959 1.35289 7.34212 1.13093 7.42658C0.908968 7.51105 0.707094 7.63577 0.536947 7.79356C0.3668 7.95135 0.231749 8.13907 0.139592 8.34591C0.0474337 8.55274 -8.18295e-06 8.7746 1.05866e-09 8.99867Z" fill="#E7038E"/>
</svg>
