<svg width="14" height="15" viewBox="0 0 14 15" fill="none" xmlns="http://www.w3.org/2000/svg">
<path fill-rule="evenodd" clip-rule="evenodd" d="M7.00012 4.44983C5.45403 4.44983 4.19995 5.70389 4.19995 7.25C4.19995 8.7961 5.45401 10.0502 7.00012 10.0502C8.54622 10.0502 9.80028 8.7961 9.80028 7.25C9.80028 5.70389 8.54622 4.44983 7.00012 4.44983ZM5.60037 7.25C5.60037 6.47694 6.22708 5.85025 7.00012 5.85025C7.77315 5.85025 8.39987 6.47696 8.39987 7.25C8.39987 8.02303 7.77315 8.64974 7.00012 8.64974C6.22708 8.64974 5.60037 8.02303 5.60037 7.25Z" fill="#FFC9E9"/>
<path fill-rule="evenodd" clip-rule="evenodd" d="M5.60029 0.25C5.21377 0.25 4.90008 0.563683 4.90008 0.95021V2.05727C4.87121 2.06909 4.84234 2.0809 4.81346 2.09337L4.03056 1.31047C3.75691 1.03682 3.31396 1.03682 3.04031 1.31047L1.06047 3.29031C0.929221 3.42156 0.855714 3.59939 0.855714 3.78511C0.855714 3.97083 0.929213 4.14867 1.06047 4.27991L1.84337 5.06346C1.8309 5.09234 1.81909 5.12121 1.80727 5.15008H0.70021C0.313683 5.15008 0 5.46377 0 5.85029V8.64979C0 9.03632 0.313683 9.35 0.70021 9.35H1.80727C1.81909 9.37887 1.8309 9.40775 1.84337 9.43662L1.06047 10.2202C0.929221 10.3514 0.855714 10.5293 0.855714 10.715C0.855714 10.9007 0.929213 11.0785 1.06047 11.2098L3.04031 13.1896C3.31396 13.4633 3.75691 13.4633 4.02991 13.1896L4.81346 12.4067C4.84234 12.4185 4.87121 12.431 4.90008 12.4428V13.5499C4.90008 13.9364 5.21377 14.2501 5.60029 14.2501H8.39979C8.78632 14.2501 9.1 13.9364 9.1 13.5499V12.4428C9.12888 12.431 9.15775 12.4185 9.18662 12.4067L9.96952 13.1896C10.2432 13.4633 10.6861 13.4633 10.9598 13.1896L12.9396 11.2098C13.0709 11.0785 13.1444 10.9007 13.1444 10.715C13.1444 10.5293 13.0709 10.3514 12.9396 10.2195L12.1567 9.43662C12.1685 9.40775 12.181 9.37887 12.1928 9.35H13.2999C13.6864 9.35 14.0001 9.03632 14.0001 8.64979V5.85029C14.0001 5.46377 13.6864 5.15008 13.2999 5.15008H12.1928C12.181 5.12121 12.1685 5.09233 12.1567 5.06346L12.9396 4.28056C13.2133 4.00691 13.2133 3.56396 12.9396 3.29031L10.9598 1.31047C10.6861 1.03682 10.2432 1.03682 9.96952 1.31047L9.18662 2.09337C9.15775 2.0809 9.12887 2.06909 9.1 2.05727V0.95021C9.1 0.563683 8.78632 0.25 8.39979 0.25H5.60029ZM6.29985 2.5534V1.65042H7.70025V2.5534C7.70025 2.86248 7.90368 3.13548 8.20031 3.22408C8.47922 3.30676 8.7463 3.41831 8.99764 3.55483C9.26998 3.70248 9.60728 3.65326 9.82581 3.43408L10.465 2.79556L11.4546 3.78516L10.8161 4.42434C10.5969 4.64287 10.5477 4.98017 10.6953 5.25251C10.8318 5.50385 10.9434 5.77093 11.0261 6.04984C11.1147 6.34645 11.3877 6.5499 11.6968 6.5499H12.5997V7.9503H11.6968C11.3877 7.9503 11.1147 8.15373 11.0261 8.45036C10.9434 8.72927 10.8318 8.99635 10.6953 9.24769C10.5477 9.52003 10.5969 9.85733 10.8161 10.0759L11.4546 10.715L10.465 11.7046L9.82581 11.0661C9.60728 10.8469 9.26998 10.7977 8.99764 10.9454C8.7463 11.0819 8.47922 11.1934 8.20031 11.2761C7.9037 11.3647 7.70025 11.6377 7.70025 11.9468V12.8498H6.29985V11.9468C6.29985 11.6377 6.09642 11.3647 5.79979 11.2761C5.52088 11.1934 5.2538 11.0819 5.00246 10.9454C4.73012 10.7977 4.39282 10.8469 4.17429 11.0661L3.53511 11.7046L2.54551 10.715L3.18403 10.0759C3.40322 9.85733 3.45244 9.52003 3.30478 9.24769C3.16828 8.99635 3.05672 8.72927 2.97403 8.45036C2.88544 8.15374 2.61245 7.9503 2.30335 7.9503H1.40037V6.5499H2.30335C2.61243 6.5499 2.88543 6.34647 2.97403 6.04984C3.05672 5.77093 3.16827 5.50385 3.30478 5.25251C3.45243 4.98017 3.40322 4.64287 3.18403 4.42434L2.54551 3.78516L3.53511 2.79556L4.17429 3.43408C4.39282 3.65327 4.73012 3.70249 5.00246 3.55483C5.2538 3.41833 5.52088 3.30677 5.79979 3.22408C6.09641 3.13549 6.29985 2.8625 6.29985 2.5534Z" fill="#FFC9E9"/>
</svg>
