<svg width="14" height="14" viewBox="0 0 14 14" fill="none" xmlns="http://www.w3.org/2000/svg">
<path d="M13.9307 5.12433L13.1955 2.06434C13.0414 1.43414 12.4953 1 11.8581 1H2.13193C1.50173 1 0.94855 1.44114 0.801503 2.06434L0.0662662 5.12433C-0.101788 5.83856 0.0522618 6.56679 0.500406 7.14097C0.556424 7.218 0.633449 7.27402 0.696469 7.34404V12.2036C0.696469 12.9739 1.32667 13.6041 2.09692 13.6041H11.9001C12.6703 13.6041 13.3005 12.9739 13.3005 12.2036V7.34404C13.3635 7.28102 13.4406 7.218 13.4966 7.14798C13.9447 6.57379 14.1058 5.83856 13.9307 5.12433ZM11.8371 2.39345L12.5723 5.45343C12.6423 5.74753 12.5793 6.04162 12.3972 6.2727C12.2992 6.39874 12.0891 6.6018 11.739 6.6018C11.3119 6.6018 10.9408 6.25869 10.8917 5.80354L10.4856 2.40045L11.8371 2.39345ZM7.69872 2.40045H9.07116L9.44929 5.56547C9.4843 5.83856 9.40027 6.11164 9.21821 6.31471C9.06416 6.49677 8.84009 6.6018 8.553 6.6018C8.08385 6.6018 7.69872 6.18867 7.69872 5.68451V2.40045ZM4.54071 5.56547L4.92583 2.40045H6.29827V5.68451C6.29827 6.18867 5.91315 6.6018 5.39498 6.6018C5.1569 6.6018 4.93983 6.49677 4.77178 6.31471C4.59672 6.11164 4.5127 5.83856 4.54071 5.56547ZM1.4247 5.45343L2.13193 2.40045H3.51137L3.10524 5.80354C3.04923 6.25869 2.68511 6.6018 2.25797 6.6018C1.91486 6.6018 1.69779 6.39874 1.60676 6.2727C1.4177 6.04862 1.35468 5.74753 1.4247 5.45343ZM2.09692 12.2036V7.98125C2.15294 7.98825 2.20195 8.00225 2.25797 8.00225C2.86717 8.00225 3.42035 7.75017 3.82648 7.33704C4.24661 7.75717 4.80679 8.00225 5.444 8.00225C6.05319 8.00225 6.59937 7.75017 7.0055 7.35104C7.41863 7.75017 7.97881 8.00225 8.60901 8.00225C9.1972 8.00225 9.75739 7.75717 10.1775 7.33704C10.5837 7.75017 11.1368 8.00225 11.746 8.00225C11.802 8.00225 11.8511 7.98825 11.9071 7.98125V12.2036H2.09692Z" fill="#696F7A" fill-opacity="0.5"/>
</svg>
