<svg width="18" height="18" viewBox="0 0 18 18" fill="none" xmlns="http://www.w3.org/2000/svg">
<path d="M17.1 1.28577C17.3443 1.28577 17.5629 1.37562 17.73 1.54248C17.8971 1.70935 18 1.92755 18 2.14576V6.85648C16.7529 6.85648 15.75 7.81916 15.75 9.00005C15.75 10.1809 16.7529 11.1436 18 11.1436V15.8543C18 16.0854 17.91 16.3036 17.73 16.4576C17.55 16.6117 17.3314 16.7143 17.1 16.7143H0.9C0.398571 16.7143 0 16.3293 0 15.8543V11.1436C1.24714 11.1436 2.25 10.1809 2.25 9.00005C2.25 7.81916 1.24714 6.85648 0 6.85648V2.14576C0 1.67084 0.398571 1.28577 0.9 1.28577H17.1ZM16.2 2.99292H1.8V5.5344L1.94143 5.59858C3.18857 6.24037 3.98571 7.45976 4.05 8.79468V8.97438C4.05 9.66751 3.85714 10.3478 3.48429 10.9383C3.11143 11.5287 2.58429 12.0165 1.94143 12.3502L1.8 12.4144V14.9558H16.2V12.4144L16.0586 12.3502C14.8114 11.7084 14.0143 10.489 13.95 9.15408V8.97438C13.95 7.5111 14.7986 6.2532 16.0586 5.59858L16.2 5.52156V2.99292Z" fill="#086AFB"/>
</svg>
