<svg width="14" height="15" viewBox="0 0 14 15" fill="none" xmlns="http://www.w3.org/2000/svg">
<g clip-path="url(#clip0_84_134)">
<path d="M11.62 12.5264H13.3V13.9334H9.1V9.71231H10.5V11.6329C11.781 10.5987 12.6 9.02286 12.6 7.25C12.6 4.38668 10.458 2.01583 7.7 1.67111V0.25C11.235 0.601759 14 3.59874 14 7.25C14 9.35352 13.076 11.2389 11.62 12.5264ZM1.4 7.25C1.4 5.47714 2.219 3.89422 3.5 2.86709V4.78769H4.9V0.566583H0.7V1.97362H2.38C0.924 3.26106 0 5.14648 0 7.25C0 10.9013 2.765 13.8982 6.3 14.25V12.8289C3.542 12.4842 1.4 10.1133 1.4 7.25ZM9.968 4.51332L6.006 8.49523L4.025 6.50427L3.038 7.49623L6.006 10.4791L10.955 5.50528L9.968 4.51332Z" fill="#FFC9E9"/>
</g>
<defs>
<clipPath id="clip0_84_134">
<rect width="14" height="14" fill="white" transform="translate(0 0.25)"/>
</clipPath>
</defs>
</svg>
