<svg width="24" height="24" viewBox="0 0 24 24" fill="none" xmlns="http://www.w3.org/2000/svg">
<rect width="24" height="24" rx="12" fill="white" fill-opacity="0.4"/>
<rect x="0.5" y="0.5" width="23" height="23" rx="11.5" stroke="#696F7A" stroke-opacity="0.5"/>
<path d="M15.9648 9.67815C16.3555 9.39484 16.707 9.05487 17 8.63935C16.6094 8.80933 16.2188 8.92266 15.8281 8.96043C16.2578 8.69601 16.5703 8.33715 16.7266 7.86497C16.3164 8.09161 15.8867 8.2616 15.418 8.33715C15.2227 8.14828 14.9883 7.99718 14.7344 7.88385C14.4805 7.77053 14.207 7.71387 13.9141 7.71387C13.543 7.71387 13.2109 7.8083 12.8984 7.97829C12.5859 8.16716 12.332 8.4127 12.1562 8.7149C11.9609 9.0171 11.8828 9.35707 11.8828 9.69704C11.8828 9.84814 11.8828 9.99924 11.9219 10.1503C11.082 10.1126 10.3008 9.92369 9.55859 9.54594C8.81641 9.18708 8.21094 8.69601 7.70312 8.07273C7.50781 8.39381 7.41016 8.73378 7.41016 9.07376C7.41016 9.41373 7.48828 9.73481 7.66406 10.0181C7.82031 10.3203 8.05469 10.547 8.32812 10.7358C7.99609 10.7358 7.68359 10.6414 7.41016 10.4714V10.5092C7.41016 10.9814 7.56641 11.3969 7.87891 11.7558C8.19141 12.1335 8.58203 12.3602 9.05078 12.4546C8.85547 12.4924 8.67969 12.5113 8.50391 12.5113C8.38672 12.5113 8.25 12.5113 8.13281 12.4924C8.25 12.889 8.48438 13.2101 8.83594 13.4745C9.1875 13.7389 9.57812 13.8523 10.0469 13.8523C9.28516 14.4189 8.42578 14.7022 7.48828 14.7022C7.29297 14.7022 7.13672 14.7022 7 14.6833C7.9375 15.2877 8.99219 15.571 10.1445 15.571C11.3359 15.571 12.3906 15.2877 13.3281 14.6833C14.168 14.1545 14.832 13.4556 15.3008 12.549C15.75 11.718 15.9844 10.8303 15.9844 9.92369C15.9844 9.81036 15.9648 9.73481 15.9648 9.67815Z" fill="#696F7A" fill-opacity="0.5"/>
</svg>
