<svg width="14" height="14" viewBox="0 0 14 14" fill="none" xmlns="http://www.w3.org/2000/svg">
<path d="M10.47 4.49L12.47 2.49L11.47 1.49L9.47 3.49C8.92935 3.09245 8.30224 2.82859 7.64 2.72V0H6.32V2.77C5.65715 2.87029 5.02889 3.13121 4.49 3.53L2.49 1.53L1.49 2.53L3.49 4.53C3.09245 5.07065 2.82859 5.69776 2.72 6.36H0V7.72H2.77C2.87029 8.38286 3.13121 9.01111 3.53 9.55L1.53 11.55L2.53 12.55L4.53 10.55C5.07065 10.9475 5.69776 11.2114 6.36 11.32V14H7.72V11.23C8.38286 11.1297 9.01111 10.8688 9.55 10.47L11.55 12.47L12.55 11.47L10.55 9.47C10.9475 8.92935 11.2114 8.30224 11.32 7.64H14V6.32H11.23C11.1297 5.65715 10.8688 5.02889 10.47 4.49ZM7 9.94C6.41852 9.94 5.8501 9.76757 5.36662 9.44452C4.88314 9.12147 4.50632 8.6623 4.28379 8.12509C4.06127 7.58787 4.00305 6.99674 4.11649 6.42643C4.22993 5.85613 4.50994 5.33227 4.9211 4.9211C5.33227 4.50994 5.85613 4.22993 6.42643 4.11649C6.99674 4.00305 7.58787 4.06127 8.12509 4.28379C8.6623 4.50632 9.12147 4.88314 9.44452 5.36662C9.76757 5.8501 9.94 6.41852 9.94 7C9.94132 7.38646 9.86618 7.76936 9.7189 8.12665C9.57162 8.48395 9.35511 8.80857 9.08184 9.08184C8.80857 9.35511 8.48395 9.57162 8.12665 9.7189C7.76936 9.86618 7.38646 9.94132 7 9.94Z" fill="#086AFB"/>
</svg>
