<svg width="18" height="18" viewBox="0 0 18 18" fill="none" xmlns="http://www.w3.org/2000/svg">
<g clip-path="url(#clip0_0_1133)">
<path fill-rule="evenodd" clip-rule="evenodd" d="M15.9884 7.35063C15.9884 9.49176 15.0604 11.4242 13.5824 12.7697L15.1557 15.158C15.5154 15.7072 15.5532 16.4458 15.2312 17.0334C14.89 17.6211 14.2839 18 13.6015 18H3.6924C3.01002 18 2.38464 17.6211 2.0627 17.0334C1.74002 16.4466 1.75927 15.7264 2.13819 15.158L3.69165 12.7704C2.21371 11.4249 1.28564 9.49251 1.28564 7.35138C1.28564 3.29629 4.58269 0 8.63703 0C12.6914 0 15.9884 3.29648 15.9884 7.35063ZM8.63703 1.7245C5.5302 1.7245 3.01014 4.24456 3.01014 7.35138C3.01014 10.4398 5.5302 12.9783 8.63703 12.9783C11.7439 12.9783 14.2639 10.4398 14.2639 7.35138C14.2639 4.24456 11.7439 1.7245 8.63703 1.7245ZM13.6008 16.2755C13.62 16.2755 13.6578 16.2755 13.6955 16.2185C13.7306 16.1477 13.7006 16.1101 13.6961 16.1045C13.6957 16.1041 13.6955 16.1038 13.6955 16.1038L12.1798 13.7925C11.1378 14.3609 9.92557 14.7021 8.63703 14.7021C7.34849 14.7021 6.15555 14.3801 5.09425 13.7925L3.57854 16.1038C3.57854 16.1089 3.57589 16.1153 3.57269 16.123C3.56383 16.1444 3.55079 16.1758 3.57854 16.2177C3.59778 16.2747 3.65403 16.2747 3.67327 16.2747L13.6008 16.2755ZM12.0279 7.3516C12.0279 9.22691 10.5123 10.7426 8.63692 10.7426C6.76161 10.7426 5.2459 9.22699 5.2459 7.3516C5.2459 5.47628 6.76161 3.96057 8.63692 3.96057C10.5122 3.96057 12.0279 5.47621 12.0279 7.3516ZM10.3044 7.35156C10.3044 6.44198 9.56499 5.68413 8.63692 5.68413C7.70884 5.68413 6.96949 6.44198 6.96949 7.35156C6.96949 8.26114 7.72735 9.01899 8.63692 9.01899C9.5465 9.01899 10.3044 8.26114 10.3044 7.35156Z" fill="#086AFB"/>
</g>
<defs>
<clipPath id="clip0_0_1133">
<rect width="18" height="18" fill="white"/>
</clipPath>
</defs>
</svg>
