<?xml version="1.0" encoding="utf-8"?>
<!-- Generator: Adobe Illustrator 26.2.1, SVG Export Plug-In . SVG Version: 6.00 Build 0)  -->
<svg version="1.1" id="Layer_1" xmlns="http://www.w3.org/2000/svg" xmlns:xlink="http://www.w3.org/1999/xlink" x="0px" y="0px"
	 viewBox="0 0 1000 245" style="enable-background:new 0 0 1000 245;" xml:space="preserve">
<style type="text/css">
	.st0{fill:#2887F9;}
	.st1{fill:#E53CA9;}
	.st2{fill:#3D33D1;}
</style>
<g>
	<g>
		<path class="st0" d="M250.7,50.1c0,8.8-2.3,17.5-6.8,25.2c-0.1,0.2-0.2,0.4-0.3,0.5c-2.4,4-5.4,7.8-9.1,11.1l-2.5,2.3
			c-8.6,6.9-19.4,11-31.3,11H50c-27.6,0-50-22.4-50-50.1c0-13.8,5.6-26.4,14.7-35.4S36.2,0,50,0h150.7c0.9,0,1.7,0,2.6,0.1
			c0.3,0,0.7,0,1,0.1c12.2,0.9,24.2,6.3,33.1,16C246.3,25.8,250.7,38,250.7,50.1z"/>
		<path class="st1" d="M250.8,187.7c0,13.8-5.6,26.4-14.7,35.4c-9.1,9.1-21.6,14.7-35.4,14.7H50c-2.6,0-5.1-0.2-7.5-0.6
			c-0.2,0-0.5-0.1-0.7-0.1c-10.4-1.9-20.4-7-28.1-15.4C4.9,212.1,0.5,200,0.5,187.8c0-13.5,5.5-27,16.2-36.9l4.7-4.3
			c8.1-5.7,18-9,28.6-9h150.7C228.4,137.6,250.8,160,250.8,187.7z"/>
		<path class="st2" d="M250.7,50.1c0,8.8-2.3,17.5-6.8,25.2c-0.1,0.2-0.2,0.4-0.3,0.5c-2.4,4-5.4,7.8-9.1,11.1l-2.5,2.3l-52.6,48.3
			l-94.8,87.1c-8.8,8.1-19.7,12.4-30.7,13.1c-3.8,0.3-7.6,0.1-11.4-0.6c-0.2,0-0.5-0.1-0.7-0.1c-10.4-1.9-20.4-7-28.1-15.4
			C4.9,212.1,0.5,200,0.5,187.8c0-13.5,5.5-27,16.2-36.9l4.7-4.3l50.4-46.3l0.3-0.2l94.4-86.8c9.3-8.5,20.9-12.9,32.6-13.2
			c1.4,0,2.8,0,4.2,0.1c0.3,0,0.7,0,1,0.1c12.2,0.9,24.2,6.3,33.1,16C246.3,25.8,250.7,38,250.7,50.1z"/>
	</g>
	<g>
		<g>
			<path d="M416.3,119.9c3.9,0,7.2,1.4,10.1,4.1c2.8,2.8,4.1,6.1,4.1,10c0,3.9-1.4,7.3-4.1,10.1c-2.8,2.8-6.2,4.1-10.1,4.1h-88.4
				c-2.8,0-5.3-0.7-7.6-2.2c-2.3-1.4-4.1-3.4-5.2-5.9c-1.2-2.5-1.6-5.1-1.3-7.8c0.4-2.7,1.4-5.1,3.2-7.2l69.1-82.9h-58.2
				c-4,0-7.3-1.4-10.1-4.1s-4.1-6.1-4.1-10c0-3.9,1.4-7.2,4.1-10c2.8-2.8,6.1-4.2,10.1-4.2h88.4c2.8,0,5.3,0.7,7.6,2.2
				c2.3,1.5,4,3.5,5.2,5.9c1.1,2.5,1.5,5.1,1.2,7.8c-0.3,2.8-1.3,5.2-3.1,7.3l-69.1,82.8H416.3z"/>
			<path d="M448.9,146.7c-3.5-1.7-5.9-4.5-7.1-8.2c-1.3-3.7-1-7.3,0.7-10.8l53.1-106.1c1.2-2.4,2.9-4.3,5.2-5.7
				c2.3-1.4,4.8-2.1,7.5-2.1s5.2,0.7,7.5,2.1c2.3,1.4,4,3.4,5.2,5.7l53,106.1c1.8,3.5,2.1,7.1,0.8,10.8c-1.3,3.7-3.6,6.4-7.1,8.2
				c-2,1-4.1,1.5-6.3,1.5c-2.6,0-5.1-0.7-7.4-2.1c-2.3-1.4-4.1-3.4-5.3-5.8l-9.4-18.7h-62.1l-9.3,18.7c-1.7,3.5-4.5,5.9-8.2,7.1
				C456,148.7,452.4,148.4,448.9,146.7z M491.4,93.4h33.8l-16.9-33.7L491.4,93.4z"/>
			<path d="M688.7,119.9c3.9,0,7.2,1.4,10.1,4.1c2.8,2.8,4.1,6.1,4.1,10c0,3.9-1.4,7.3-4.1,10.1c-2.8,2.8-6.2,4.1-10.1,4.1h-88.4
				c-2.8,0-5.3-0.7-7.6-2.2c-2.3-1.4-4.1-3.4-5.2-5.9c-1.2-2.5-1.6-5.1-1.3-7.8c0.4-2.7,1.4-5.1,3.2-7.2l69.1-82.9h-58.2
				c-4,0-7.3-1.4-10.1-4.1s-4.1-6.1-4.1-10c0-3.9,1.4-7.2,4.1-10c2.8-2.8,6.1-4.2,10.1-4.2h88.4c2.8,0,5.3,0.7,7.6,2.2
				c2.3,1.5,4,3.5,5.2,5.9c1.1,2.5,1.5,5.1,1.2,7.8c-0.3,2.8-1.3,5.2-3.1,7.3l-69.1,82.8H688.7z"/>
			<path d="M717,81.1c0-18.5,6.6-34.4,19.7-47.5c13.2-13.2,29-19.7,47.5-19.7c18.6,0,34.4,6.6,47.5,19.7
				c13.2,13.1,19.8,28.9,19.8,47.5c0,18.5-6.6,34.3-19.8,47.5c-13.1,13.1-29,19.7-47.5,19.7c-18.5,0-34.3-6.6-47.5-19.7
				C723.5,115.4,717,99.6,717,81.1z M823.1,81.1c0-10.7-3.8-19.9-11.4-27.5c-7.7-7.7-16.9-11.5-27.6-11.5
				c-10.7,0-19.9,3.8-27.5,11.5c-7.6,7.6-11.4,16.8-11.4,27.5c0,10.7,3.8,19.9,11.4,27.5c7.6,7.6,16.8,11.4,27.5,11.4
				c10.7,0,19.9-3.8,27.6-11.4C819.3,100.9,823.1,91.8,823.1,81.1z"/>
			<path d="M865.5,81.1c0-18.5,6.6-34.4,19.7-47.5c13.2-13.2,29-19.7,47.5-19.7c18.6,0,34.4,6.6,47.5,19.7
				c13.2,13.1,19.8,28.9,19.8,47.5c0,18.5-6.6,34.3-19.8,47.5c-13.1,13.1-29,19.7-47.5,19.7c-18.5,0-34.3-6.6-47.5-19.7
				C872.1,115.4,865.5,99.6,865.5,81.1z M971.7,81.1c0-10.7-3.8-19.9-11.4-27.5c-7.7-7.7-16.9-11.5-27.6-11.5
				c-10.7,0-19.9,3.8-27.5,11.5c-7.6,7.6-11.4,16.8-11.4,27.5c0,10.7,3.8,19.9,11.4,27.5c7.6,7.6,16.8,11.4,27.5,11.4
				c10.7,0,19.9-3.8,27.6-11.4C967.9,100.9,971.7,91.8,971.7,81.1z"/>
		</g>
		<g>
			<g>
				<path class="st0" d="M347.5,207.5V222c0,2.3-0.5,4-1.6,5.1c-1,1.1-2.4,1.7-4.1,1.7c-1.6,0-3-0.6-4-1.7c-1-1.1-1.5-2.9-1.5-5.1
					v-17.4c0-2.7-0.1-4.9-0.3-6.4c-0.2-1.5-0.7-2.8-1.5-3.7c-0.8-1-2.1-1.5-3.9-1.5c-3.6,0-5.9,1.2-7,3.7c-1.1,2.4-1.7,6-1.7,10.5
					V222c0,2.3-0.5,4-1.5,5.1c-1,1.2-2.4,1.7-4,1.7c-1.6,0-3-0.6-4-1.7c-1-1.2-1.6-2.9-1.6-5.1v-31.2c0-2,0.5-3.6,1.4-4.7
					c0.9-1.1,2.2-1.6,3.7-1.6c1.5,0,2.7,0.5,3.7,1.5c1,1,1.5,2.4,1.5,4.1v1c1.9-2.3,3.9-3.9,6.1-5c2.2-1.1,4.5-1.6,7.2-1.6
					c2.7,0,5.1,0.5,7.1,1.6c2,1.1,3.6,2.7,4.9,4.9c1.8-2.2,3.8-3.9,5.9-5c2.1-1.1,4.4-1.6,7-1.6c3,0,5.5,0.6,7.7,1.8
					c2.2,1.2,3.8,2.8,4.8,5c0.9,2,1.4,5.1,1.4,9.3V222c0,2.3-0.5,4-1.6,5.1c-1,1.1-2.4,1.7-4.1,1.7c-1.6,0-3-0.6-4-1.7
					c-1-1.2-1.6-2.9-1.6-5.1v-18.3c0-2.3-0.1-4.2-0.3-5.6c-0.2-1.4-0.7-2.6-1.6-3.6s-2.2-1.4-4-1.4c-1.4,0-2.8,0.4-4.1,1.3
					c-1.3,0.9-2.3,2-3,3.4C347.9,199.6,347.5,202.9,347.5,207.5z"/>
				<path class="st0" d="M423,206.7c0,3.2-0.5,6.2-1.5,9c-1,2.7-2.5,5.1-4.4,7.1c-1.9,2-4.2,3.5-6.9,4.5s-5.6,1.6-9,1.6
					c-3.3,0-6.3-0.5-8.9-1.6c-2.6-1.1-4.9-2.6-6.8-4.6c-1.9-2-3.4-4.3-4.4-7c-1-2.7-1.5-5.7-1.5-9c0-3.3,0.5-6.3,1.5-9.1
					c1-2.7,2.5-5.1,4.3-7c1.9-1.9,4.2-3.4,6.9-4.5c2.7-1.1,5.6-1.6,8.9-1.6c3.3,0,6.3,0.5,9,1.6c2.7,1.1,5,2.6,6.9,4.5
					c1.9,2,3.4,4.3,4.4,7C422.5,200.4,423,203.4,423,206.7z M412.1,206.7c0-4.4-1-7.9-2.9-10.4c-2-2.5-4.6-3.7-7.9-3.7
					c-2.1,0-4,0.6-5.6,1.7c-1.6,1.1-2.9,2.7-3.7,4.9c-0.9,2.2-1.3,4.7-1.3,7.5c0,2.8,0.4,5.3,1.3,7.5c0.9,2.1,2.1,3.8,3.7,4.9
					c1.6,1.1,3.5,1.7,5.7,1.7c3.3,0,5.9-1.2,7.9-3.7C411.1,214.5,412.1,211.1,412.1,206.7z"/>
				<path class="st0" d="M460.1,222.6v-1.1c-1.5,1.7-2.9,3-4.3,4.1c-1.4,1.1-3,1.8-4.6,2.4c-1.7,0.5-3.5,0.8-5.4,0.8
					c-2.6,0-5-0.6-7.2-1.7c-2.2-1.1-4.1-2.7-5.8-4.7c-1.6-2-2.8-4.5-3.7-7.2c-0.8-2.8-1.3-5.8-1.3-9c0-6.8,1.7-12.1,5-15.9
					c3.3-3.8,7.7-5.7,13.1-5.7c3.1,0,5.8,0.5,7.9,1.6c2.2,1.1,4.2,2.7,6.3,5v-16.1c0-2.2,0.4-3.9,1.3-5.1c0.9-1.1,2.2-1.7,3.8-1.7
					c1.6,0,2.9,0.5,3.8,1.6s1.3,2.6,1.3,4.6v48c0,2.1-0.5,3.6-1.4,4.7c-1,1-2.2,1.6-3.7,1.6c-1.5,0-2.7-0.5-3.7-1.6
					C460.6,226.2,460.1,224.6,460.1,222.6z M438.8,206.6c0,3,0.5,5.5,1.4,7.5c0.9,2.1,2.2,3.6,3.8,4.7s3.3,1.6,5.2,1.6
					c1.9,0,3.7-0.5,5.2-1.5c1.6-1,2.8-2.5,3.8-4.6c0.9-2.1,1.4-4.6,1.4-7.7c0-2.9-0.5-5.4-1.4-7.5c-0.9-2.1-2.2-3.7-3.8-4.8
					c-1.6-1.1-3.4-1.7-5.3-1.7c-2,0-3.8,0.6-5.3,1.7c-1.6,1.1-2.8,2.8-3.6,4.9C439.2,201.4,438.8,203.8,438.8,206.6z"/>
				<path class="st0" d="M510.5,209.4h-21.3c0,2.5,0.5,4.7,1.5,6.5c1,1.9,2.3,3.3,3.9,4.3c1.6,1,3.4,1.4,5.3,1.4
					c1.3,0,2.5-0.2,3.6-0.5c1.1-0.3,2.1-0.8,3.1-1.4c1-0.7,1.9-1.3,2.8-2.1c0.9-0.7,2-1.8,3.3-3c0.6-0.5,1.4-0.7,2.4-0.7
					c1.1,0,2,0.3,2.7,0.9c0.7,0.6,1,1.5,1,2.6c0,1-0.4,2.1-1.2,3.5c-0.8,1.3-1.9,2.6-3.5,3.8c-1.6,1.2-3.5,2.2-5.9,3
					c-2.4,0.8-5.1,1.2-8.1,1.2c-7,0-12.4-2-16.3-6c-3.9-4-5.8-9.4-5.8-16.2c0-3.2,0.5-6.2,1.4-9c1-2.8,2.4-5.1,4.2-7.1
					c1.8-2,4.1-3.5,6.8-4.5c2.7-1.1,5.7-1.6,8.9-1.6c4.2,0,7.9,0.9,10.9,2.7c3,1.8,5.3,4.1,6.8,7c1.5,2.8,2.3,5.7,2.3,8.7
					c0,2.7-0.8,4.5-2.3,5.3C515.5,209,513.3,209.4,510.5,209.4z M489.2,203.2h19.7c-0.3-3.7-1.3-6.5-3-8.4c-1.7-1.8-4-2.8-6.9-2.8
					c-2.7,0-4.9,0.9-6.7,2.8C490.6,196.8,489.6,199.5,489.2,203.2z"/>
				<path class="st0" d="M538.2,213.1v9.1c0,2.2-0.5,3.9-1.6,5c-1,1.1-2.4,1.7-3.9,1.7c-1.6,0-2.9-0.6-3.9-1.7
					c-1-1.1-1.5-2.8-1.5-4.9v-30.3c0-4.9,1.8-7.3,5.3-7.3c1.8,0,3.1,0.6,3.9,1.7c0.8,1.1,1.2,2.8,1.3,5.1c1.3-2.2,2.6-3.9,4-5.1
					c1.4-1.1,3.2-1.7,5.5-1.7c2.3,0,4.5,0.6,6.7,1.7c2.2,1.1,3.2,2.7,3.2,4.5c0,1.3-0.5,2.4-1.4,3.3c-0.9,0.9-1.9,1.3-3,1.3
					c-0.4,0-1.4-0.2-2.9-0.7c-1.5-0.5-2.9-0.7-4-0.7c-1.6,0-2.9,0.4-3.9,1.3c-1,0.8-1.8,2.1-2.3,3.7c-0.6,1.6-0.9,3.6-1.2,5.9
					C538.3,207.1,538.2,209.9,538.2,213.1z"/>
				<path class="st0" d="M571.8,190.6v1.3c1.9-2.5,4-4.4,6.3-5.6c2.3-1.2,4.9-1.8,7.8-1.8c2.9,0,5.4,0.6,7.7,1.9
					c2.3,1.3,3.9,3,5.1,5.3c0.7,1.3,1.2,2.8,1.4,4.3c0.2,1.5,0.3,3.5,0.3,5.9v20.3c0,2.2-0.5,3.8-1.5,4.9c-1,1.1-2.3,1.7-3.9,1.7
					c-1.6,0-2.9-0.6-3.9-1.7c-1-1.1-1.5-2.8-1.5-4.9v-18.1c0-3.6-0.5-6.3-1.5-8.2c-1-1.9-3-2.9-6-2.9c-1.9,0-3.7,0.6-5.3,1.7
					c-1.6,1.2-2.8,2.7-3.5,4.8c-0.5,1.6-0.8,4.7-0.8,9.1v13.6c0,2.2-0.5,3.9-1.5,5c-1,1.1-2.3,1.7-4,1.7c-1.6,0-2.9-0.6-3.9-1.7
					c-1-1.1-1.5-2.8-1.5-4.9v-31.5c0-2.1,0.5-3.6,1.4-4.6c0.9-1,2.1-1.5,3.7-1.5c1,0,1.8,0.2,2.6,0.7c0.8,0.5,1.4,1.1,1.9,2
					C571.5,188.2,571.8,189.3,571.8,190.6z"/>
			</g>
			<g>
				<path class="st1" d="M639.2,190.7v1.3c2-2.5,4.2-4.4,6.4-5.6c2.2-1.2,4.7-1.8,7.5-1.8c3.3,0,6.4,0.9,9.2,2.6
					c2.8,1.7,5,4.3,6.7,7.6c1.6,3.3,2.4,7.3,2.4,11.8c0,3.4-0.5,6.4-1.4,9.2c-0.9,2.8-2.2,5.2-3.9,7.1c-1.6,1.9-3.6,3.4-5.8,4.4
					c-2.2,1-4.7,1.5-7.2,1.5c-3.1,0-5.7-0.6-7.8-1.9c-2.1-1.2-4.1-3.1-6-5.5v16.4c0,4.8-1.7,7.2-5.2,7.2c-2,0-3.4-0.6-4.1-1.9
					c-0.7-1.2-1-3-1-5.4v-47c0-2.1,0.5-3.6,1.4-4.6c0.9-1,2.1-1.5,3.7-1.5c1.5,0,2.8,0.5,3.8,1.6
					C638.7,187.2,639.2,188.7,639.2,190.7z M660.5,206.5c0-2.9-0.4-5.3-1.3-7.4c-0.9-2.1-2.1-3.6-3.6-4.7c-1.6-1.1-3.3-1.7-5.2-1.7
					c-3,0-5.5,1.2-7.6,3.6c-2.1,2.4-3.1,5.9-3.1,10.5c0,4.3,1,7.7,3.1,10.1c2,2.4,4.6,3.6,7.6,3.6c1.8,0,3.5-0.5,5-1.6
					c1.5-1.1,2.8-2.6,3.7-4.7C660,212,660.5,209.5,660.5,206.5z"/>
				<path class="st1" d="M706.4,222.7c-2.6,2-5.2,3.6-7.6,4.6c-2.5,1-5.2,1.5-8.3,1.5c-2.8,0-5.2-0.6-7.3-1.7
					c-2.1-1.1-3.7-2.6-4.9-4.5c-1.1-1.9-1.7-3.9-1.7-6.1c0-3,0.9-5.5,2.8-7.6c1.9-2.1,4.5-3.5,7.8-4.2c0.7-0.2,2.4-0.5,5.1-1.1
					c2.7-0.6,5.1-1.1,7-1.5c2-0.5,4.1-1,6.4-1.7c-0.1-2.9-0.7-5-1.7-6.3c-1-1.3-3.1-2-6.4-2c-2.8,0-4.8,0.4-6.2,1.2
					c-1.4,0.8-2.6,1.9-3.6,3.5c-1,1.5-1.7,2.6-2.1,3.1c-0.4,0.5-1.3,0.7-2.6,0.7c-1.2,0-2.3-0.4-3.2-1.2c-0.9-0.8-1.3-1.8-1.3-3
					c0-1.9,0.7-3.8,2-5.6c1.4-1.8,3.5-3.3,6.3-4.5c2.9-1.2,6.4-1.8,10.7-1.8c4.8,0,8.5,0.6,11.3,1.7c2.7,1.1,4.7,2.9,5.8,5.4
					c1.1,2.4,1.7,5.7,1.7,9.7c0,2.6,0,4.7,0,6.5c0,1.8,0,3.8-0.1,5.9c0,2,0.3,4.2,1,6.4c0.7,2.2,1,3.6,1,4.3c0,1.1-0.5,2.1-1.6,3.1
					c-1,0.9-2.2,1.4-3.6,1.4c-1.1,0-2.2-0.5-3.3-1.6C708.7,226.2,707.6,224.7,706.4,222.7z M705.6,206.9c-1.6,0.6-3.9,1.2-7,1.9
					c-3,0.7-5.1,1.1-6.3,1.4c-1.2,0.3-2.3,0.9-3.3,1.8c-1.1,0.9-1.6,2.1-1.6,3.7c0,1.6,0.6,3.1,1.9,4.2c1.2,1.2,2.9,1.7,4.9,1.7
					c2.2,0,4.1-0.5,6-1.4c1.8-0.9,3.2-2.2,4-3.7c1-1.6,1.5-4.4,1.5-8.1V206.9z"/>
				<path class="st1" d="M735.1,230.2l1-2.4L722.7,194c-0.8-1.9-1.2-3.4-1.2-4.2c0-0.9,0.2-1.8,0.7-2.6c0.5-0.8,1.1-1.4,2-1.9
					c0.8-0.5,1.7-0.7,2.6-0.7c1.6,0,2.7,0.5,3.5,1.5c0.8,1,1.5,2.4,2.1,4.3l9.2,26.8l8.7-24.9c0.7-2,1.3-3.6,1.9-4.7
					c0.6-1.1,1.1-1.9,1.8-2.3c0.6-0.4,1.5-0.6,2.6-0.6c0.8,0,1.6,0.2,2.4,0.7c0.8,0.4,1.3,1,1.8,1.8c0.4,0.7,0.6,1.5,0.6,2.4
					c-0.1,0.5-0.3,1.2-0.5,2.2c-0.2,0.9-0.5,1.9-0.9,2.8l-14.2,37.2c-1.2,3.3-2.4,5.8-3.6,7.7c-1.2,1.9-2.7,3.3-4.6,4.3
					c-1.9,1-4.5,1.5-7.8,1.5c-3.2,0-5.6-0.3-7.2-1c-1.6-0.7-2.4-2-2.4-3.8c0-1.3,0.4-2.2,1.1-2.9c0.8-0.7,1.9-1,3.4-1
					c0.6,0,1.2,0.1,1.7,0.2c0.7,0.2,1.3,0.2,1.8,0.2c1.2,0,2.2-0.2,2.9-0.6c0.7-0.4,1.4-1,1.9-1.9
					C733.7,233.3,734.4,232,735.1,230.2z"/>
				<path class="st1" d="M804.2,207.5V222c0,2.3-0.5,4-1.6,5.1c-1,1.1-2.4,1.7-4.1,1.7c-1.6,0-3-0.6-4-1.7c-1-1.1-1.5-2.9-1.5-5.1
					v-17.4c0-2.7-0.1-4.9-0.3-6.4c-0.2-1.5-0.7-2.8-1.5-3.7s-2.1-1.5-3.9-1.5c-3.6,0-5.9,1.2-7,3.7c-1.1,2.4-1.7,6-1.7,10.5V222
					c0,2.3-0.5,4-1.5,5.1c-1,1.2-2.4,1.7-4,1.7c-1.6,0-3-0.6-4-1.7c-1-1.2-1.6-2.9-1.6-5.1v-31.2c0-2,0.5-3.6,1.4-4.7
					c0.9-1.1,2.2-1.6,3.7-1.6c1.5,0,2.7,0.5,3.7,1.5c1,1,1.5,2.4,1.5,4.1v1c1.9-2.3,3.9-3.9,6.1-5c2.2-1.1,4.5-1.6,7.2-1.6
					c2.7,0,5.1,0.5,7.1,1.6c2,1.1,3.6,2.7,4.9,4.9c1.8-2.2,3.8-3.9,5.9-5c2.1-1.1,4.4-1.6,7-1.6c3,0,5.5,0.6,7.7,1.8
					c2.2,1.2,3.8,2.8,4.8,5c0.9,2,1.4,5.1,1.4,9.3V222c0,2.3-0.5,4-1.6,5.1c-1,1.1-2.4,1.7-4.1,1.7c-1.6,0-3-0.6-4-1.7
					c-1-1.2-1.6-2.9-1.6-5.1v-18.3c0-2.3-0.1-4.2-0.3-5.6c-0.2-1.4-0.7-2.6-1.6-3.6c-0.9-1-2.2-1.4-4-1.4c-1.4,0-2.8,0.4-4.1,1.3
					c-1.3,0.9-2.3,2-3,3.4C804.6,199.6,804.2,202.9,804.2,207.5z"/>
				<path class="st1" d="M869.4,209.4h-21.3c0,2.5,0.5,4.7,1.5,6.5c1,1.9,2.3,3.3,3.9,4.3s3.4,1.4,5.3,1.4c1.3,0,2.5-0.2,3.6-0.5
					c1.1-0.3,2.1-0.8,3.1-1.4c1-0.7,1.9-1.3,2.8-2.1c0.9-0.7,2-1.8,3.3-3c0.6-0.5,1.4-0.7,2.4-0.7c1.1,0,2,0.3,2.7,0.9
					c0.7,0.6,1,1.5,1,2.6c0,1-0.4,2.1-1.2,3.5c-0.8,1.3-1.9,2.6-3.5,3.8c-1.6,1.2-3.5,2.2-5.9,3c-2.4,0.8-5.1,1.2-8.1,1.2
					c-7,0-12.4-2-16.3-6c-3.9-4-5.8-9.4-5.8-16.2c0-3.2,0.5-6.2,1.4-9c1-2.8,2.4-5.1,4.2-7.1c1.8-2,4.1-3.5,6.8-4.5
					c2.7-1.1,5.7-1.6,8.9-1.6c4.2,0,7.9,0.9,10.9,2.7c3,1.8,5.3,4.1,6.8,7c1.5,2.8,2.3,5.7,2.3,8.7c0,2.7-0.8,4.5-2.3,5.3
					C874.4,209,872.2,209.4,869.4,209.4z M848.1,203.2h19.7c-0.3-3.7-1.3-6.5-3-8.4c-1.7-1.8-4-2.8-6.9-2.8c-2.7,0-4.9,0.9-6.7,2.8
					C849.5,196.8,848.5,199.5,848.1,203.2z"/>
				<path class="st1" d="M896.2,190.6v1.3c1.9-2.5,4-4.4,6.3-5.6c2.3-1.2,4.9-1.8,7.8-1.8c2.9,0,5.4,0.6,7.7,1.9
					c2.3,1.3,3.9,3,5.1,5.3c0.7,1.3,1.2,2.8,1.4,4.3c0.2,1.5,0.3,3.5,0.3,5.9v20.3c0,2.2-0.5,3.8-1.5,4.9c-1,1.1-2.3,1.7-3.9,1.7
					c-1.6,0-2.9-0.6-3.9-1.7c-1-1.1-1.5-2.8-1.5-4.9v-18.1c0-3.6-0.5-6.3-1.5-8.2c-1-1.9-3-2.9-6-2.9c-1.9,0-3.7,0.6-5.3,1.7
					c-1.6,1.2-2.8,2.7-3.5,4.8c-0.5,1.6-0.8,4.7-0.8,9.1v13.6c0,2.2-0.5,3.9-1.5,5c-1,1.1-2.3,1.7-4,1.7c-1.6,0-2.9-0.6-3.9-1.7
					c-1-1.1-1.5-2.8-1.5-4.9v-31.5c0-2.1,0.5-3.6,1.4-4.6c0.9-1,2.1-1.5,3.7-1.5c1,0,1.8,0.2,2.6,0.7c0.8,0.5,1.4,1.1,1.9,2
					C895.9,188.2,896.2,189.3,896.2,190.6z"/>
				<path class="st1" d="M934.9,185.5h1.2V179c0-1.8,0-3.1,0.1-4.1c0.1-1,0.4-1.9,0.8-2.6c0.4-0.7,1-1.3,1.8-1.8
					c0.8-0.5,1.7-0.7,2.7-0.7c1.4,0,2.6,0.5,3.7,1.6c0.7,0.7,1.2,1.5,1.4,2.5c0.2,1,0.3,2.4,0.3,4.2v7.4h4c1.5,0,2.7,0.4,3.5,1.1
					c0.8,0.7,1.2,1.7,1.2,2.8c0,1.5-0.6,2.5-1.7,3.1c-1.2,0.6-2.8,0.9-5,0.9h-2v20c0,1.7,0.1,3,0.2,3.9c0.1,0.9,0.4,1.7,1,2.2
					c0.5,0.6,1.4,0.9,2.5,0.9c0.6,0,1.5-0.1,2.6-0.3c1.1-0.2,1.9-0.3,2.5-0.3c0.9,0,1.7,0.4,2.4,1.1c0.7,0.7,1.1,1.6,1.1,2.6
					c0,1.8-1,3.1-2.9,4c-1.9,0.9-4.7,1.4-8.2,1.4c-3.4,0-6-0.6-7.7-1.7c-1.8-1.1-2.9-2.7-3.4-4.7c-0.5-2-0.8-4.7-0.8-8.1v-20.9h-1.4
					c-1.6,0-2.8-0.4-3.6-1.1c-0.8-0.7-1.2-1.7-1.2-2.8s0.4-2.1,1.3-2.8C932,185.9,933.3,185.5,934.9,185.5z"/>
				<path class="st1" d="M997,214.6c0,3-0.7,5.6-2.2,7.7c-1.5,2.1-3.6,3.8-6.5,4.9c-2.9,1.1-6.3,1.7-10.4,1.7c-3.9,0-7.3-0.6-10-1.8
					c-2.8-1.2-4.8-2.7-6.2-4.5c-1.3-1.8-2-3.6-2-5.4c0-1.2,0.4-2.2,1.3-3.1c0.8-0.9,1.9-1.3,3.2-1.3c1.1,0,2,0.3,2.6,0.8
					c0.6,0.6,1.2,1.3,1.8,2.4c1.1,1.9,2.5,3.4,4,4.3c1.6,1,3.7,1.4,6.4,1.4c2.2,0,4-0.5,5.4-1.5c1.4-1,2.1-2.1,2.1-3.3
					c0-1.9-0.7-3.3-2.2-4.2c-1.4-0.9-3.8-1.7-7.2-2.5c-3.7-0.9-6.8-1.9-9.1-2.9c-2.4-1-4.2-2.4-5.6-4c-1.4-1.7-2.1-3.7-2.1-6.2
					c0-2.2,0.7-4.2,2-6.2c1.3-1.9,3.2-3.5,5.8-4.6c2.5-1.2,5.6-1.7,9.2-1.7c2.8,0,5.3,0.3,7.6,0.9c2.2,0.6,4.1,1.4,5.6,2.4
					c1.5,1,2.6,2.1,3.4,3.3c0.8,1.2,1.2,2.4,1.2,3.5c0,1.3-0.4,2.3-1.3,3.1c-0.8,0.8-2,1.2-3.6,1.2c-1.1,0-2.1-0.3-2.8-1
					c-0.8-0.6-1.7-1.6-2.7-2.9c-0.8-1.1-1.8-1.9-2.9-2.6c-1.1-0.6-2.6-1-4.5-1c-2,0-3.6,0.4-4.9,1.3c-1.3,0.8-2,1.9-2,3.1
					c0,1.1,0.5,2.1,1.4,2.8c1,0.7,2.2,1.3,3.9,1.8c1.6,0.5,3.8,1.1,6.7,1.8c3.4,0.8,6.1,1.8,8.3,3c2.1,1.1,3.8,2.5,4.9,4
					C996.4,210.8,997,212.6,997,214.6z"/>
			</g>
		</g>
	</g>
</g>
</svg>
